<svg xmlns="http://www.w3.org/2000/svg" xmlns:xlink="http://www.w3.org/1999/xlink" width="600" height="400" viewBox="0 0 2400 1600">
<defs>
  <clipPath id="clip270">
    <rect x="0" y="0" width="2400" height="1600"></rect>
  </clipPath>
</defs>
<path clip-path="url(#clip270)" d="M0 1600 L2400 1600 L2400 0 L0 0  Z" fill="#ffffff" fill-rule="evenodd" fill-opacity="1"></path>
<defs>
  <clipPath id="clip271">
    <rect x="480" y="0" width="1681" height="1600"></rect>
  </clipPath>
</defs>
<path clip-path="url(#clip270)" d="M156.112 1486.45 L2241.63 1486.45 L2241.63 47.2441 L156.112 47.2441  Z" fill="#ffffff" fill-rule="evenodd" fill-opacity="1"></path>
<defs>
  <clipPath id="clip272">
    <rect x="156" y="47" width="2087" height="1440"></rect>
  </clipPath>
</defs>
<polyline clip-path="url(#clip272)" style="stroke:#000000; stroke-linecap:round; stroke-linejoin:round; stroke-width:2; stroke-opacity:0.1; fill:none" points="215.136,1486.45 215.136,47.2441 "></polyline>
<polyline clip-path="url(#clip272)" style="stroke:#000000; stroke-linecap:round; stroke-linejoin:round; stroke-width:2; stroke-opacity:0.1; fill:none" points="707.004,1486.45 707.004,47.2441 "></polyline>
<polyline clip-path="url(#clip272)" style="stroke:#000000; stroke-linecap:round; stroke-linejoin:round; stroke-width:2; stroke-opacity:0.1; fill:none" points="1198.87,1486.45 1198.87,47.2441 "></polyline>
<polyline clip-path="url(#clip272)" style="stroke:#000000; stroke-linecap:round; stroke-linejoin:round; stroke-width:2; stroke-opacity:0.1; fill:none" points="1690.74,1486.45 1690.74,47.2441 "></polyline>
<polyline clip-path="url(#clip272)" style="stroke:#000000; stroke-linecap:round; stroke-linejoin:round; stroke-width:2; stroke-opacity:0.1; fill:none" points="2182.61,1486.45 2182.61,47.2441 "></polyline>
<polyline clip-path="url(#clip270)" style="stroke:#000000; stroke-linecap:round; stroke-linejoin:round; stroke-width:4; stroke-opacity:1; fill:none" points="156.112,1486.45 2241.63,1486.45 "></polyline>
<polyline clip-path="url(#clip270)" style="stroke:#000000; stroke-linecap:round; stroke-linejoin:round; stroke-width:4; stroke-opacity:1; fill:none" points="215.136,1486.45 215.136,1467.55 "></polyline>
<polyline clip-path="url(#clip270)" style="stroke:#000000; stroke-linecap:round; stroke-linejoin:round; stroke-width:4; stroke-opacity:1; fill:none" points="707.004,1486.45 707.004,1467.55 "></polyline>
<polyline clip-path="url(#clip270)" style="stroke:#000000; stroke-linecap:round; stroke-linejoin:round; stroke-width:4; stroke-opacity:1; fill:none" points="1198.87,1486.45 1198.87,1467.55 "></polyline>
<polyline clip-path="url(#clip270)" style="stroke:#000000; stroke-linecap:round; stroke-linejoin:round; stroke-width:4; stroke-opacity:1; fill:none" points="1690.74,1486.45 1690.74,1467.55 "></polyline>
<polyline clip-path="url(#clip270)" style="stroke:#000000; stroke-linecap:round; stroke-linejoin:round; stroke-width:4; stroke-opacity:1; fill:none" points="2182.61,1486.45 2182.61,1467.55 "></polyline>
<path clip-path="url(#clip270)" d="M177.44 1517.37 Q173.829 1517.37 172 1520.93 Q170.194 1524.47 170.194 1531.6 Q170.194 1538.71 172 1542.27 Q173.829 1545.82 177.44 1545.82 Q181.074 1545.82 182.879 1542.27 Q184.708 1538.71 184.708 1531.6 Q184.708 1524.47 182.879 1520.93 Q181.074 1517.37 177.44 1517.37 M177.44 1513.66 Q183.25 1513.66 186.305 1518.27 Q189.384 1522.85 189.384 1531.6 Q189.384 1540.33 186.305 1544.94 Q183.25 1549.52 177.44 1549.52 Q171.63 1549.52 168.551 1544.94 Q165.495 1540.33 165.495 1531.6 Q165.495 1522.85 168.551 1518.27 Q171.63 1513.66 177.44 1513.66 Z" fill="#000000" fill-rule="nonzero" fill-opacity="1"></path><path clip-path="url(#clip270)" d="M197.602 1542.97 L202.486 1542.97 L202.486 1548.85 L197.602 1548.85 L197.602 1542.97 Z" fill="#000000" fill-rule="nonzero" fill-opacity="1"></path><path clip-path="url(#clip270)" d="M222.671 1517.37 Q219.06 1517.37 217.231 1520.93 Q215.426 1524.47 215.426 1531.6 Q215.426 1538.71 217.231 1542.27 Q219.06 1545.82 222.671 1545.82 Q226.305 1545.82 228.111 1542.27 Q229.939 1538.71 229.939 1531.6 Q229.939 1524.47 228.111 1520.93 Q226.305 1517.37 222.671 1517.37 M222.671 1513.66 Q228.481 1513.66 231.537 1518.27 Q234.615 1522.85 234.615 1531.6 Q234.615 1540.33 231.537 1544.94 Q228.481 1549.52 222.671 1549.52 Q216.861 1549.52 213.782 1544.94 Q210.727 1540.33 210.727 1531.6 Q210.727 1522.85 213.782 1518.27 Q216.861 1513.66 222.671 1513.66 Z" fill="#000000" fill-rule="nonzero" fill-opacity="1"></path><path clip-path="url(#clip270)" d="M252.833 1517.37 Q249.222 1517.37 247.393 1520.93 Q245.587 1524.47 245.587 1531.6 Q245.587 1538.71 247.393 1542.27 Q249.222 1545.82 252.833 1545.82 Q256.467 1545.82 258.273 1542.27 Q260.101 1538.71 260.101 1531.6 Q260.101 1524.47 258.273 1520.93 Q256.467 1517.37 252.833 1517.37 M252.833 1513.66 Q258.643 1513.66 261.698 1518.27 Q264.777 1522.85 264.777 1531.6 Q264.777 1540.33 261.698 1544.94 Q258.643 1549.52 252.833 1549.52 Q247.023 1549.52 243.944 1544.94 Q240.888 1540.33 240.888 1531.6 Q240.888 1522.85 243.944 1518.27 Q247.023 1513.66 252.833 1513.66 Z" fill="#000000" fill-rule="nonzero" fill-opacity="1"></path><path clip-path="url(#clip270)" d="M669.805 1517.37 Q666.194 1517.37 664.365 1520.93 Q662.56 1524.47 662.56 1531.6 Q662.56 1538.71 664.365 1542.27 Q666.194 1545.82 669.805 1545.82 Q673.439 1545.82 675.245 1542.27 Q677.073 1538.71 677.073 1531.6 Q677.073 1524.47 675.245 1520.93 Q673.439 1517.37 669.805 1517.37 M669.805 1513.66 Q675.615 1513.66 678.671 1518.27 Q681.749 1522.85 681.749 1531.6 Q681.749 1540.33 678.671 1544.94 Q675.615 1549.52 669.805 1549.52 Q663.995 1549.52 660.916 1544.94 Q657.861 1540.33 657.861 1531.6 Q657.861 1522.85 660.916 1518.27 Q663.995 1513.66 669.805 1513.66 Z" fill="#000000" fill-rule="nonzero" fill-opacity="1"></path><path clip-path="url(#clip270)" d="M689.967 1542.97 L694.851 1542.97 L694.851 1548.85 L689.967 1548.85 L689.967 1542.97 Z" fill="#000000" fill-rule="nonzero" fill-opacity="1"></path><path clip-path="url(#clip270)" d="M709.064 1544.91 L725.383 1544.91 L725.383 1548.85 L703.439 1548.85 L703.439 1544.91 Q706.101 1542.16 710.684 1537.53 Q715.291 1532.88 716.471 1531.53 Q718.717 1529.01 719.596 1527.27 Q720.499 1525.51 720.499 1523.82 Q720.499 1521.07 718.555 1519.33 Q716.633 1517.6 713.532 1517.6 Q711.333 1517.6 708.879 1518.36 Q706.448 1519.13 703.671 1520.68 L703.671 1515.95 Q706.495 1514.82 708.948 1514.24 Q711.402 1513.66 713.439 1513.66 Q718.809 1513.66 722.004 1516.35 Q725.198 1519.03 725.198 1523.52 Q725.198 1525.65 724.388 1527.57 Q723.601 1529.47 721.495 1532.07 Q720.916 1532.74 717.814 1535.95 Q714.712 1539.15 709.064 1544.91 Z" fill="#000000" fill-rule="nonzero" fill-opacity="1"></path><path clip-path="url(#clip270)" d="M735.244 1514.29 L753.601 1514.29 L753.601 1518.22 L739.527 1518.22 L739.527 1526.7 Q740.545 1526.35 741.564 1526.19 Q742.582 1526 743.601 1526 Q749.388 1526 752.768 1529.17 Q756.147 1532.34 756.147 1537.76 Q756.147 1543.34 752.675 1546.44 Q749.203 1549.52 742.883 1549.52 Q740.707 1549.52 738.439 1549.15 Q736.194 1548.78 733.786 1548.04 L733.786 1543.34 Q735.869 1544.47 738.092 1545.03 Q740.314 1545.58 742.791 1545.58 Q746.795 1545.58 749.133 1543.48 Q751.471 1541.37 751.471 1537.76 Q751.471 1534.15 749.133 1532.04 Q746.795 1529.94 742.791 1529.94 Q740.916 1529.94 739.041 1530.35 Q737.189 1530.77 735.244 1531.65 L735.244 1514.29 Z" fill="#000000" fill-rule="nonzero" fill-opacity="1"></path><path clip-path="url(#clip270)" d="M1161.17 1517.37 Q1157.56 1517.37 1155.74 1520.93 Q1153.93 1524.47 1153.93 1531.6 Q1153.93 1538.71 1155.74 1542.27 Q1157.56 1545.82 1161.17 1545.82 Q1164.81 1545.82 1166.61 1542.27 Q1168.44 1538.71 1168.44 1531.6 Q1168.44 1524.47 1166.61 1520.93 Q1164.81 1517.37 1161.17 1517.37 M1161.17 1513.66 Q1166.99 1513.66 1170.04 1518.27 Q1173.12 1522.85 1173.12 1531.6 Q1173.12 1540.33 1170.04 1544.94 Q1166.99 1549.52 1161.17 1549.52 Q1155.36 1549.52 1152.29 1544.94 Q1149.23 1540.33 1149.23 1531.6 Q1149.23 1522.85 1152.29 1518.27 Q1155.36 1513.66 1161.17 1513.66 Z" fill="#000000" fill-rule="nonzero" fill-opacity="1"></path><path clip-path="url(#clip270)" d="M1181.34 1542.97 L1186.22 1542.97 L1186.22 1548.85 L1181.34 1548.85 L1181.34 1542.97 Z" fill="#000000" fill-rule="nonzero" fill-opacity="1"></path><path clip-path="url(#clip270)" d="M1196.45 1514.29 L1214.81 1514.29 L1214.81 1518.22 L1200.73 1518.22 L1200.73 1526.7 Q1201.75 1526.35 1202.77 1526.19 Q1203.79 1526 1204.81 1526 Q1210.6 1526 1213.98 1529.17 Q1217.36 1532.34 1217.36 1537.76 Q1217.36 1543.34 1213.88 1546.44 Q1210.41 1549.52 1204.09 1549.52 Q1201.92 1549.52 1199.65 1549.15 Q1197.4 1548.78 1194.99 1548.04 L1194.99 1543.34 Q1197.08 1544.47 1199.3 1545.03 Q1201.52 1545.58 1204 1545.58 Q1208 1545.58 1210.34 1543.48 Q1212.68 1541.37 1212.68 1537.76 Q1212.68 1534.15 1210.34 1532.04 Q1208 1529.94 1204 1529.94 Q1202.12 1529.94 1200.25 1530.35 Q1198.4 1530.77 1196.45 1531.65 L1196.45 1514.29 Z" fill="#000000" fill-rule="nonzero" fill-opacity="1"></path><path clip-path="url(#clip270)" d="M1236.57 1517.37 Q1232.96 1517.37 1231.13 1520.93 Q1229.32 1524.47 1229.32 1531.6 Q1229.32 1538.71 1231.13 1542.27 Q1232.96 1545.82 1236.57 1545.82 Q1240.2 1545.82 1242.01 1542.27 Q1243.84 1538.71 1243.84 1531.6 Q1243.84 1524.47 1242.01 1520.93 Q1240.2 1517.37 1236.57 1517.37 M1236.57 1513.66 Q1242.38 1513.66 1245.43 1518.27 Q1248.51 1522.85 1248.51 1531.6 Q1248.51 1540.33 1245.43 1544.94 Q1242.38 1549.52 1236.57 1549.52 Q1230.76 1549.52 1227.68 1544.94 Q1224.62 1540.33 1224.62 1531.6 Q1224.62 1522.85 1227.68 1518.27 Q1230.76 1513.66 1236.57 1513.66 Z" fill="#000000" fill-rule="nonzero" fill-opacity="1"></path><path clip-path="url(#clip270)" d="M1653.54 1517.37 Q1649.93 1517.37 1648.1 1520.93 Q1646.29 1524.47 1646.29 1531.6 Q1646.29 1538.71 1648.1 1542.27 Q1649.93 1545.82 1653.54 1545.82 Q1657.17 1545.82 1658.98 1542.27 Q1660.81 1538.71 1660.81 1531.6 Q1660.81 1524.47 1658.98 1520.93 Q1657.17 1517.37 1653.54 1517.37 M1653.54 1513.66 Q1659.35 1513.66 1662.41 1518.27 Q1665.48 1522.85 1665.48 1531.6 Q1665.48 1540.33 1662.41 1544.94 Q1659.35 1549.52 1653.54 1549.52 Q1647.73 1549.52 1644.65 1544.94 Q1641.6 1540.33 1641.6 1531.6 Q1641.6 1522.85 1644.65 1518.27 Q1647.73 1513.66 1653.54 1513.66 Z" fill="#000000" fill-rule="nonzero" fill-opacity="1"></path><path clip-path="url(#clip270)" d="M1673.7 1542.97 L1678.59 1542.97 L1678.59 1548.85 L1673.7 1548.85 L1673.7 1542.97 Z" fill="#000000" fill-rule="nonzero" fill-opacity="1"></path><path clip-path="url(#clip270)" d="M1687.59 1514.29 L1709.81 1514.29 L1709.81 1516.28 L1697.27 1548.85 L1692.38 1548.85 L1704.19 1518.22 L1687.59 1518.22 L1687.59 1514.29 Z" fill="#000000" fill-rule="nonzero" fill-opacity="1"></path><path clip-path="url(#clip270)" d="M1718.98 1514.29 L1737.34 1514.29 L1737.34 1518.22 L1723.26 1518.22 L1723.26 1526.7 Q1724.28 1526.35 1725.3 1526.19 Q1726.32 1526 1727.34 1526 Q1733.12 1526 1736.5 1529.17 Q1739.88 1532.34 1739.88 1537.76 Q1739.88 1543.34 1736.41 1546.44 Q1732.94 1549.52 1726.62 1549.52 Q1724.44 1549.52 1722.17 1549.15 Q1719.93 1548.78 1717.52 1548.04 L1717.52 1543.34 Q1719.6 1544.47 1721.83 1545.03 Q1724.05 1545.58 1726.53 1545.58 Q1730.53 1545.58 1732.87 1543.48 Q1735.21 1541.37 1735.21 1537.76 Q1735.21 1534.15 1732.87 1532.04 Q1730.53 1529.94 1726.53 1529.94 Q1724.65 1529.94 1722.78 1530.35 Q1720.92 1530.77 1718.98 1531.65 L1718.98 1514.29 Z" fill="#000000" fill-rule="nonzero" fill-opacity="1"></path><path clip-path="url(#clip270)" d="M2134.68 1544.91 L2142.32 1544.91 L2142.32 1518.55 L2134.01 1520.21 L2134.01 1515.95 L2142.27 1514.29 L2146.95 1514.29 L2146.95 1544.91 L2154.59 1544.91 L2154.59 1548.85 L2134.68 1548.85 L2134.68 1544.91 Z" fill="#000000" fill-rule="nonzero" fill-opacity="1"></path><path clip-path="url(#clip270)" d="M2164.03 1542.97 L2168.91 1542.97 L2168.91 1548.85 L2164.03 1548.85 L2164.03 1542.97 Z" fill="#000000" fill-rule="nonzero" fill-opacity="1"></path><path clip-path="url(#clip270)" d="M2189.1 1517.37 Q2185.49 1517.37 2183.66 1520.93 Q2181.85 1524.47 2181.85 1531.6 Q2181.85 1538.71 2183.66 1542.27 Q2185.49 1545.82 2189.1 1545.82 Q2192.73 1545.82 2194.54 1542.27 Q2196.37 1538.71 2196.37 1531.6 Q2196.37 1524.47 2194.54 1520.93 Q2192.73 1517.37 2189.1 1517.37 M2189.1 1513.66 Q2194.91 1513.66 2197.97 1518.27 Q2201.04 1522.85 2201.04 1531.6 Q2201.04 1540.33 2197.97 1544.94 Q2194.91 1549.52 2189.1 1549.52 Q2183.29 1549.52 2180.21 1544.94 Q2177.16 1540.33 2177.16 1531.6 Q2177.16 1522.85 2180.21 1518.27 Q2183.29 1513.66 2189.1 1513.66 Z" fill="#000000" fill-rule="nonzero" fill-opacity="1"></path><path clip-path="url(#clip270)" d="M2219.26 1517.37 Q2215.65 1517.37 2213.82 1520.93 Q2212.02 1524.47 2212.02 1531.6 Q2212.02 1538.71 2213.82 1542.27 Q2215.65 1545.82 2219.26 1545.82 Q2222.9 1545.82 2224.7 1542.27 Q2226.53 1538.71 2226.53 1531.6 Q2226.53 1524.47 2224.7 1520.93 Q2222.9 1517.37 2219.26 1517.37 M2219.26 1513.66 Q2225.07 1513.66 2228.13 1518.27 Q2231.21 1522.85 2231.21 1531.6 Q2231.21 1540.33 2228.13 1544.94 Q2225.07 1549.52 2219.26 1549.52 Q2213.45 1549.52 2210.37 1544.94 Q2207.32 1540.33 2207.32 1531.6 Q2207.32 1522.85 2210.37 1518.27 Q2213.45 1513.66 2219.26 1513.66 Z" fill="#000000" fill-rule="nonzero" fill-opacity="1"></path><polyline clip-path="url(#clip270)" style="stroke:#000000; stroke-linecap:round; stroke-linejoin:round; stroke-width:4; stroke-opacity:1; fill:none" points="156.112,1486.45 156.112,47.2441 "></polyline>
<polyline clip-path="url(#clip270)" style="stroke:#000000; stroke-linecap:round; stroke-linejoin:round; stroke-width:4; stroke-opacity:1; fill:none" points="156.112,1468.33 175.01,1468.33 "></polyline>
<polyline clip-path="url(#clip270)" style="stroke:#000000; stroke-linecap:round; stroke-linejoin:round; stroke-width:4; stroke-opacity:1; fill:none" points="156.112,1208.22 175.01,1208.22 "></polyline>
<polyline clip-path="url(#clip270)" style="stroke:#000000; stroke-linecap:round; stroke-linejoin:round; stroke-width:4; stroke-opacity:1; fill:none" points="156.112,948.114 175.01,948.114 "></polyline>
<polyline clip-path="url(#clip270)" style="stroke:#000000; stroke-linecap:round; stroke-linejoin:round; stroke-width:4; stroke-opacity:1; fill:none" points="156.112,688.008 175.01,688.008 "></polyline>
<polyline clip-path="url(#clip270)" style="stroke:#000000; stroke-linecap:round; stroke-linejoin:round; stroke-width:4; stroke-opacity:1; fill:none" points="156.112,427.902 175.01,427.902 "></polyline>
<polyline clip-path="url(#clip270)" style="stroke:#000000; stroke-linecap:round; stroke-linejoin:round; stroke-width:4; stroke-opacity:1; fill:none" points="156.112,167.796 175.01,167.796 "></polyline>
<path clip-path="url(#clip270)" d="M62.9365 1454.13 Q59.3254 1454.13 57.4967 1457.69 Q55.6912 1461.23 55.6912 1468.36 Q55.6912 1475.47 57.4967 1479.03 Q59.3254 1482.57 62.9365 1482.57 Q66.5707 1482.57 68.3763 1479.03 Q70.205 1475.47 70.205 1468.36 Q70.205 1461.23 68.3763 1457.69 Q66.5707 1454.13 62.9365 1454.13 M62.9365 1450.42 Q68.7467 1450.42 71.8022 1455.03 Q74.8809 1459.61 74.8809 1468.36 Q74.8809 1477.09 71.8022 1481.69 Q68.7467 1486.28 62.9365 1486.28 Q57.1264 1486.28 54.0477 1481.69 Q50.9921 1477.09 50.9921 1468.36 Q50.9921 1459.61 54.0477 1455.03 Q57.1264 1450.42 62.9365 1450.42 Z" fill="#000000" fill-rule="nonzero" fill-opacity="1"></path><path clip-path="url(#clip270)" d="M83.0984 1479.73 L87.9827 1479.73 L87.9827 1485.61 L83.0984 1485.61 L83.0984 1479.73 Z" fill="#000000" fill-rule="nonzero" fill-opacity="1"></path><path clip-path="url(#clip270)" d="M108.168 1454.13 Q104.557 1454.13 102.728 1457.69 Q100.922 1461.23 100.922 1468.36 Q100.922 1475.47 102.728 1479.03 Q104.557 1482.57 108.168 1482.57 Q111.802 1482.57 113.608 1479.03 Q115.436 1475.47 115.436 1468.36 Q115.436 1461.23 113.608 1457.69 Q111.802 1454.13 108.168 1454.13 M108.168 1450.42 Q113.978 1450.42 117.033 1455.03 Q120.112 1459.61 120.112 1468.36 Q120.112 1477.09 117.033 1481.69 Q113.978 1486.28 108.168 1486.28 Q102.358 1486.28 99.2789 1481.69 Q96.2234 1477.09 96.2234 1468.36 Q96.2234 1459.61 99.2789 1455.03 Q102.358 1450.42 108.168 1450.42 Z" fill="#000000" fill-rule="nonzero" fill-opacity="1"></path><path clip-path="url(#clip270)" d="M63.9319 1194.02 Q60.3208 1194.02 58.4921 1197.58 Q56.6865 1201.13 56.6865 1208.26 Q56.6865 1215.36 58.4921 1218.93 Q60.3208 1222.47 63.9319 1222.47 Q67.5661 1222.47 69.3717 1218.93 Q71.2004 1215.36 71.2004 1208.26 Q71.2004 1201.13 69.3717 1197.58 Q67.5661 1194.02 63.9319 1194.02 M63.9319 1190.32 Q69.742 1190.32 72.7976 1194.92 Q75.8763 1199.51 75.8763 1208.26 Q75.8763 1216.98 72.7976 1221.59 Q69.742 1226.17 63.9319 1226.17 Q58.1217 1226.17 55.043 1221.59 Q51.9875 1216.98 51.9875 1208.26 Q51.9875 1199.51 55.043 1194.92 Q58.1217 1190.32 63.9319 1190.32 Z" fill="#000000" fill-rule="nonzero" fill-opacity="1"></path><path clip-path="url(#clip270)" d="M84.0938 1219.62 L88.978 1219.62 L88.978 1225.5 L84.0938 1225.5 L84.0938 1219.62 Z" fill="#000000" fill-rule="nonzero" fill-opacity="1"></path><path clip-path="url(#clip270)" d="M99.2095 1190.94 L117.566 1190.94 L117.566 1194.88 L103.492 1194.88 L103.492 1203.35 Q104.51 1203 105.529 1202.84 Q106.547 1202.65 107.566 1202.65 Q113.353 1202.65 116.733 1205.82 Q120.112 1209 120.112 1214.41 Q120.112 1219.99 116.64 1223.09 Q113.168 1226.17 106.848 1226.17 Q104.672 1226.17 102.404 1225.8 Q100.159 1225.43 97.7511 1224.69 L97.7511 1219.99 Q99.8345 1221.13 102.057 1221.68 Q104.279 1222.24 106.756 1222.24 Q110.76 1222.24 113.098 1220.13 Q115.436 1218.02 115.436 1214.41 Q115.436 1210.8 113.098 1208.7 Q110.76 1206.59 106.756 1206.59 Q104.881 1206.59 103.006 1207.01 Q101.154 1207.42 99.2095 1208.3 L99.2095 1190.94 Z" fill="#000000" fill-rule="nonzero" fill-opacity="1"></path><path clip-path="url(#clip270)" d="M53.7467 961.459 L61.3856 961.459 L61.3856 935.094 L53.0754 936.76 L53.0754 932.501 L61.3393 930.834 L66.0152 930.834 L66.0152 961.459 L73.654 961.459 L73.654 965.394 L53.7467 965.394 L53.7467 961.459 Z" fill="#000000" fill-rule="nonzero" fill-opacity="1"></path><path clip-path="url(#clip270)" d="M83.0984 959.515 L87.9827 959.515 L87.9827 965.394 L83.0984 965.394 L83.0984 959.515 Z" fill="#000000" fill-rule="nonzero" fill-opacity="1"></path><path clip-path="url(#clip270)" d="M108.168 933.913 Q104.557 933.913 102.728 937.478 Q100.922 941.02 100.922 948.149 Q100.922 955.256 102.728 958.82 Q104.557 962.362 108.168 962.362 Q111.802 962.362 113.608 958.82 Q115.436 955.256 115.436 948.149 Q115.436 941.02 113.608 937.478 Q111.802 933.913 108.168 933.913 M108.168 930.209 Q113.978 930.209 117.033 934.816 Q120.112 939.399 120.112 948.149 Q120.112 956.876 117.033 961.482 Q113.978 966.066 108.168 966.066 Q102.358 966.066 99.2789 961.482 Q96.2234 956.876 96.2234 948.149 Q96.2234 939.399 99.2789 934.816 Q102.358 930.209 108.168 930.209 Z" fill="#000000" fill-rule="nonzero" fill-opacity="1"></path><path clip-path="url(#clip270)" d="M54.7421 701.353 L62.381 701.353 L62.381 674.987 L54.0708 676.654 L54.0708 672.395 L62.3347 670.728 L67.0106 670.728 L67.0106 701.353 L74.6494 701.353 L74.6494 705.288 L54.7421 705.288 L54.7421 701.353 Z" fill="#000000" fill-rule="nonzero" fill-opacity="1"></path><path clip-path="url(#clip270)" d="M84.0938 699.409 L88.978 699.409 L88.978 705.288 L84.0938 705.288 L84.0938 699.409 Z" fill="#000000" fill-rule="nonzero" fill-opacity="1"></path><path clip-path="url(#clip270)" d="M99.2095 670.728 L117.566 670.728 L117.566 674.663 L103.492 674.663 L103.492 683.136 Q104.51 682.788 105.529 682.626 Q106.547 682.441 107.566 682.441 Q113.353 682.441 116.733 685.612 Q120.112 688.784 120.112 694.2 Q120.112 699.779 116.64 702.881 Q113.168 705.96 106.848 705.96 Q104.672 705.96 102.404 705.589 Q100.159 705.219 97.7511 704.478 L97.7511 699.779 Q99.8345 700.913 102.057 701.469 Q104.279 702.024 106.756 702.024 Q110.76 702.024 113.098 699.918 Q115.436 697.811 115.436 694.2 Q115.436 690.589 113.098 688.483 Q110.76 686.376 106.756 686.376 Q104.881 686.376 103.006 686.793 Q101.154 687.21 99.2095 688.089 L99.2095 670.728 Z" fill="#000000" fill-rule="nonzero" fill-opacity="1"></path><path clip-path="url(#clip270)" d="M56.9643 441.247 L73.2837 441.247 L73.2837 445.182 L51.3393 445.182 L51.3393 441.247 Q54.0014 438.492 58.5847 433.863 Q63.1911 429.21 64.3717 427.867 Q66.617 425.344 67.4967 423.608 Q68.3994 421.849 68.3994 420.159 Q68.3994 417.404 66.455 415.668 Q64.5337 413.932 61.4319 413.932 Q59.2328 413.932 56.7791 414.696 Q54.3486 415.46 51.5708 417.011 L51.5708 412.289 Q54.3949 411.154 56.8486 410.576 Q59.3023 409.997 61.3393 409.997 Q66.7096 409.997 69.9041 412.682 Q73.0985 415.367 73.0985 419.858 Q73.0985 421.988 72.2883 423.909 Q71.5013 425.807 69.3948 428.4 Q68.8161 429.071 65.7143 432.289 Q62.6124 435.483 56.9643 441.247 Z" fill="#000000" fill-rule="nonzero" fill-opacity="1"></path><path clip-path="url(#clip270)" d="M83.0984 439.302 L87.9827 439.302 L87.9827 445.182 L83.0984 445.182 L83.0984 439.302 Z" fill="#000000" fill-rule="nonzero" fill-opacity="1"></path><path clip-path="url(#clip270)" d="M108.168 413.701 Q104.557 413.701 102.728 417.266 Q100.922 420.807 100.922 427.937 Q100.922 435.043 102.728 438.608 Q104.557 442.15 108.168 442.15 Q111.802 442.15 113.608 438.608 Q115.436 435.043 115.436 427.937 Q115.436 420.807 113.608 417.266 Q111.802 413.701 108.168 413.701 M108.168 409.997 Q113.978 409.997 117.033 414.603 Q120.112 419.187 120.112 427.937 Q120.112 436.664 117.033 441.27 Q113.978 445.853 108.168 445.853 Q102.358 445.853 99.2789 441.27 Q96.2234 436.664 96.2234 427.937 Q96.2234 419.187 99.2789 414.603 Q102.358 409.997 108.168 409.997 Z" fill="#000000" fill-rule="nonzero" fill-opacity="1"></path><path clip-path="url(#clip270)" d="M57.9597 181.141 L74.279 181.141 L74.279 185.076 L52.3347 185.076 L52.3347 181.141 Q54.9967 178.386 59.58 173.756 Q64.1865 169.104 65.367 167.761 Q67.6124 165.238 68.492 163.502 Q69.3948 161.743 69.3948 160.053 Q69.3948 157.298 67.4504 155.562 Q65.5291 153.826 62.4272 153.826 Q60.2282 153.826 57.7745 154.59 Q55.344 155.354 52.5662 156.905 L52.5662 152.183 Q55.3903 151.048 57.8439 150.47 Q60.2976 149.891 62.3347 149.891 Q67.705 149.891 70.8994 152.576 Q74.0939 155.261 74.0939 159.752 Q74.0939 161.882 73.2837 163.803 Q72.4966 165.701 70.3902 168.294 Q69.8115 168.965 66.7096 172.182 Q63.6078 175.377 57.9597 181.141 Z" fill="#000000" fill-rule="nonzero" fill-opacity="1"></path><path clip-path="url(#clip270)" d="M84.0938 179.196 L88.978 179.196 L88.978 185.076 L84.0938 185.076 L84.0938 179.196 Z" fill="#000000" fill-rule="nonzero" fill-opacity="1"></path><path clip-path="url(#clip270)" d="M99.2095 150.516 L117.566 150.516 L117.566 154.451 L103.492 154.451 L103.492 162.923 Q104.51 162.576 105.529 162.414 Q106.547 162.229 107.566 162.229 Q113.353 162.229 116.733 165.4 Q120.112 168.571 120.112 173.988 Q120.112 179.567 116.64 182.668 Q113.168 185.747 106.848 185.747 Q104.672 185.747 102.404 185.377 Q100.159 185.006 97.7511 184.266 L97.7511 179.567 Q99.8345 180.701 102.057 181.256 Q104.279 181.812 106.756 181.812 Q110.76 181.812 113.098 179.706 Q115.436 177.599 115.436 173.988 Q115.436 170.377 113.098 168.27 Q110.76 166.164 106.756 166.164 Q104.881 166.164 103.006 166.581 Q101.154 166.997 99.2095 167.877 L99.2095 150.516 Z" fill="#000000" fill-rule="nonzero" fill-opacity="1"></path><polyline clip-path="url(#clip272)" style="stroke:#0000ff; stroke-linecap:round; stroke-linejoin:round; stroke-width:4; stroke-opacity:1; fill:none" points="215.136,948.114 217.104,948.114 219.071,948.114 221.039,948.114 223.006,948.114 224.974,948.114 226.941,948.114 228.909,948.114 230.876,948.114 232.843,948.114 234.811,948.114 236.778,948.114 238.746,948.114 240.713,948.114 242.681,948.114 244.648,948.114 246.616,948.114 248.583,948.114 250.551,948.114 252.518,948.114 254.486,948.114 256.453,948.437 258.421,948.437 260.388,948.437 262.356,948.437 264.323,948.437 266.29,948.437 268.258,948.437 270.225,948.437 272.193,948.437 274.16,948.437 276.128,948.437 278.095,948.437 280.063,948.437 282.03,948.437 283.998,948.437 285.965,948.437 287.933,948.437 289.9,948.437 291.868,948.437 293.835,948.437 295.803,948.437 297.77,948.437 299.737,948.437 301.705,948.437 303.672,948.437 305.64,948.437 307.607,948.437 309.575,948.437 311.542,948.437 313.51,1346.82 315.477,1346.82 317.445,1346.82 319.412,1346.82 321.38,1346.82 323.347,1346.82 325.315,1346.82 327.282,1346.82 329.25,1346.82 331.217,1346.82 333.184,1346.82 335.152,1346.82 337.119,1346.82 339.087,1346.82 341.054,1346.82 343.022,1346.82 344.989,1346.82 346.957,1346.82 348.924,1346.82 350.892,1346.82 352.859,1346.82 354.827,1346.82 356.794,1346.82 358.762,1346.82 360.729,1346.82 362.697,1346.82 364.664,1346.82 366.631,1346.82 368.599,1346.82 370.566,1346.82 372.534,1346.82 374.501,1346.82 376.469,1346.82 378.436,1346.82 380.404,1346.82 382.371,1346.82 384.339,1346.82 386.306,1346.82 388.274,1346.82 390.241,1346.82 392.209,1346.82 394.176,1346.82 396.144,1346.82 398.111,1346.82 400.078,1346.82 402.046,1346.82 404.013,1346.82 405.981,1346.82 407.948,1346.82 409.916,1346.82 411.883,1346.82 413.851,1346.82 415.818,1346.82 417.786,1346.82 419.753,1346.82 421.721,1346.82 423.688,1346.82 425.656,1346.82 427.623,1346.82 429.591,1346.82 431.558,1346.82 433.525,1346.82 435.493,1346.82 437.46,1346.82 439.428,1346.82 441.395,1346.82 443.363,1346.82 445.33,1346.82 447.298,942.116 449.265,971.906 451.233,971.906 453.2,971.906 455.168,971.906 457.135,971.906 459.103,971.906 461.07,971.906 463.038,971.906 465.005,971.906 466.972,971.906 468.94,971.906 470.907,971.906 472.875,971.906 474.842,971.906 476.81,971.906 478.777,971.906 480.745,971.906 482.712,971.906 484.68,971.906 486.647,971.906 488.615,971.906 490.582,971.906 492.55,971.906 494.517,971.906 496.485,971.906 498.452,971.906 500.419,971.906 502.387,971.906 504.354,971.906 506.322,971.906 508.289,971.906 510.257,971.906 512.224,971.906 514.192,971.906 516.159,971.906 518.127,971.906 520.094,971.906 522.062,971.906 524.029,971.906 525.997,971.906 527.964,971.906 529.932,971.906 531.899,971.906 533.866,971.906 535.834,1445.72 537.801,1445.72 539.769,1445.72 541.736,1445.72 543.704,1445.72 545.671,1445.72 547.639,1445.72 549.606,1445.72 551.574,1445.72 553.541,1445.72 555.509,1445.72 557.476,1445.72 559.444,1445.72 561.411,1445.72 563.379,1445.72 565.346,1445.72 567.313,1445.72 569.281,1445.72 571.248,1445.72 573.216,1445.72 575.183,1445.72 577.151,1445.72 579.118,1445.72 581.086,1445.72 583.053,1445.72 585.021,1445.72 586.988,1445.72 588.956,1445.72 590.923,1445.72 592.891,1445.72 594.858,1445.72 596.826,1445.72 598.793,1445.72 600.76,1445.72 602.728,1445.72 604.695,1445.72 606.663,1445.72 608.63,1445.72 610.598,1445.72 612.565,1445.72 614.533,1445.72 616.5,1445.72 618.468,1445.72 620.435,1445.72 622.403,1445.72 624.37,1445.72 626.338,1445.72 628.305,1445.72 630.273,1445.72 632.24,1445.72 634.207,1445.72 636.175,1445.72 638.142,1445.72 640.11,1445.72 642.077,1445.72 644.045,1445.72 646.012,1445.72 647.98,1445.72 649.947,1445.72 651.915,1445.72 653.882,1445.72 655.85,1445.72 657.817,1445.72 659.785,1445.72 661.752,1445.72 663.72,1104.75 665.687,1104.75 667.654,1104.75 669.622,1104.75 671.589,1104.75 673.557,1104.75 675.524,1104.75 677.492,1104.75 679.459,1104.75 681.427,1104.75 683.394,1104.75 685.362,1104.75 687.329,1104.75 689.297,1104.75 691.264,1104.75 693.232,1104.75 695.199,1104.75 697.167,1104.75 699.134,1104.75 701.101,1104.75 703.069,1104.75 705.036,1104.75 707.004,1104.75 708.971,1104.75 710.939,1104.75 712.906,1104.75 714.874,1104.75 716.841,1104.75 718.809,1104.75 720.776,1104.75 722.744,1104.75 724.711,1104.75 726.679,1104.75 728.646,1104.75 730.614,1104.75 732.581,1104.75 734.548,1104.75 736.516,1104.75 738.483,1104.75 740.451,1104.75 742.418,1104.75 744.386,1104.75 746.353,1104.75 748.321,1104.75 750.288,1104.75 752.256,1104.75 754.223,1104.75 756.191,1104.75 758.158,1104.75 760.126,1104.75 762.093,1104.75 764.061,1104.75 766.028,1104.75 767.995,1104.75 769.963,1104.75 771.93,1104.75 773.898,1104.75 775.865,1104.75 777.833,1104.75 779.8,1104.75 781.768,1104.75 783.735,1104.75 785.703,1104.75 787.67,1104.75 789.638,1104.75 791.605,1104.75 793.573,1104.75 795.54,1096.82 797.508,1096.82 799.475,1096.82 801.442,1096.82 803.41,1096.82 805.377,1096.82 807.345,1096.82 809.312,1096.82 811.28,1096.82 813.247,1096.82 815.215,1096.82 817.182,1096.82 819.15,1096.82 821.117,1096.82 823.085,1096.82 825.052,1096.82 827.02,1096.82 828.987,1096.82 830.955,1096.82 832.922,1096.82 834.889,1096.82 836.857,1096.82 838.824,1096.82 840.792,1096.82 842.759,1096.82 844.727,1096.82 846.694,1096.82 848.662,1096.82 850.629,1096.82 852.597,1096.82 854.564,1096.82 856.532,1096.82 858.499,1096.82 860.467,1096.82 862.434,1096.82 864.402,1096.82 866.369,1096.82 868.336,1096.82 870.304,1096.82 872.271,1096.82 874.239,1096.82 876.206,1096.82 878.174,1096.82 880.141,1096.82 882.109,1096.82 884.076,1096.82 886.044,1096.82 888.011,1096.82 889.979,1096.82 891.946,1096.82 893.914,1096.82 895.881,1096.82 897.849,1096.82 899.816,1096.82 901.783,1096.82 903.751,1096.82 905.718,1096.82 907.686,1096.82 909.653,1096.82 911.621,1096.82 913.588,1096.82 915.556,1096.82 917.523,1096.82 919.491,1096.82 921.458,1096.82 923.426,1096.82 925.393,1096.82 927.361,1096.82 929.328,1096.82 931.296,1096.82 933.263,1096.82 935.23,1096.82 937.198,1124.6 939.165,1124.6 941.133,1124.6 943.1,1124.6 945.068,1124.6 947.035,1124.6 949.003,1124.6 950.97,1124.6 952.938,1124.6 954.905,1124.6 956.873,1124.6 958.84,1124.6 960.808,1124.6 962.775,1124.6 964.743,1124.6 966.71,1124.6 968.677,1124.6 970.645,1124.6 972.612,1124.6 974.58,1124.6 976.547,1124.6 978.515,1124.6 980.482,1124.6 982.45,1124.6 984.417,1124.6 986.385,1124.6 988.352,1124.6 990.32,1124.6 992.287,1124.6 994.255,943.838 996.222,943.838 998.19,943.838 1000.16,943.838 1002.12,943.838 1004.09,943.838 1006.06,1117.56 1008.03,1117.56 1009.99,1117.56 1011.96,1117.56 1013.93,1117.56 1015.9,1117.56 1017.86,1117.56 1019.83,1117.56 1021.8,1117.56 1023.77,1117.56 1025.73,1117.56 1027.7,1117.56 1029.67,1117.56 1031.64,1117.56 1033.6,1117.56 1035.57,1117.56 1037.54,1117.56 1039.51,1151.38 1041.47,1151.38 1043.44,1151.38 1045.41,1151.38 1047.38,1151.38 1049.34,1151.38 1051.31,1151.38 1053.28,1151.38 1055.25,1151.38 1057.21,1151.38 1059.18,1151.38 1061.15,1151.38 1063.12,1151.38 1065.08,1151.38 1067.05,1151.38 1069.02,1151.38 1070.99,1151.38 1072.95,1151.38 1074.92,1151.38 1076.89,1151.38 1078.86,1151.38 1080.82,1151.38 1082.79,1151.38 1084.76,1151.38 1086.73,1151.38 1088.69,994.393 1090.66,994.393 1092.63,994.393 1094.6,994.393 1096.56,994.393 1098.53,994.393 1100.5,994.393 1102.47,994.393 1104.43,994.393 1106.4,994.393 1108.37,994.393 1110.34,994.393 1112.3,994.393 1114.27,994.393 1116.24,994.393 1118.21,994.393 1120.17,994.393 1122.14,994.393 1124.11,994.393 1126.08,994.393 1128.04,994.393 1130.01,994.393 1131.98,994.393 1133.95,994.393 1135.91,994.393 1137.88,994.393 1139.85,994.393 1141.81,984.038 1143.78,984.038 1145.75,984.038 1147.72,984.038 1149.68,984.038 1151.65,984.038 1153.62,984.038 1155.59,984.038 1157.55,984.038 1159.52,984.038 1161.49,984.038 1163.46,984.038 1165.42,984.038 1167.39,984.038 1169.36,984.038 1171.33,984.038 1173.29,984.038 1175.26,984.038 1177.23,984.038 1179.2,984.038 1181.16,984.038 1183.13,984.038 1185.1,984.038 1187.07,984.038 1189.03,984.038 1191,984.038 1192.97,1047.41 1194.94,1047.41 1196.9,1047.41 1198.87,1047.41 1200.84,1047.41 1202.81,1047.41 1204.77,1047.41 1206.74,1047.41 1208.71,1047.41 1210.68,1047.41 1212.64,1047.41 1214.61,1047.41 1216.58,1047.41 1218.55,1047.41 1220.51,1047.41 1222.48,1047.41 1224.45,1047.41 1226.42,1047.41 1228.38,1047.41 1230.35,1047.41 1232.32,1047.41 1234.29,1047.41 1236.25,1047.41 1238.22,1047.41 1240.19,1047.41 1242.16,1047.41 1244.12,1047.41 1246.09,1047.41 1248.06,1047.41 1250.03,1047.41 1251.99,1047.41 1253.96,1047.41 1255.93,1047.41 1257.9,1047.41 1259.86,1047.41 1261.83,1047.41 1263.8,1047.41 1265.77,1047.41 1267.73,1047.41 1269.7,1047.41 1271.67,1047.41 1273.64,1047.41 1275.6,1047.41 1277.57,1047.41 1279.54,1047.41 1281.51,1047.41 1283.47,1047.41 1285.44,1237.64 1287.41,1237.64 1289.38,1237.64 1291.34,1237.64 1293.31,1237.64 1295.28,1237.64 1297.25,1237.64 1299.21,1237.64 1301.18,1237.64 1303.15,1237.64 1305.11,1237.64 1307.08,1237.64 1309.05,1237.64 1311.02,1266.48 1312.98,1266.48 1314.95,1266.48 1316.92,1266.48 1318.89,1266.48 1320.85,1266.48 1322.82,1266.48 1324.79,1266.48 1326.76,1266.48 1328.72,1266.48 1330.69,1266.48 1332.66,1266.48 1334.63,995.174 1336.59,995.174 1338.56,995.174 1340.53,995.174 1342.5,995.174 1344.46,995.174 1346.43,995.174 1348.4,995.174 1350.37,995.174 1352.33,995.174 1354.3,995.174 1356.27,995.174 1358.24,995.174 1360.2,995.174 1362.17,995.174 1364.14,591.506 1366.11,591.506 1368.07,591.506 1370.04,591.506 1372.01,591.506 1373.98,591.506 1375.94,287.467 1377.91,287.467 1379.88,287.467 1381.85,287.467 1383.81,287.467 1385.78,287.467 1387.75,287.467 1389.72,287.467 1391.68,287.467 1393.65,287.467 1395.62,287.467 1397.59,287.467 1399.55,287.467 1401.52,287.467 1403.49,287.467 1405.46,287.467 1407.42,87.9763 1409.39,87.9763 1411.36,87.9763 1413.33,87.9763 1415.29,87.9763 1417.26,87.9763 1419.23,87.9763 1421.2,87.9763 1423.16,87.9763 1425.13,87.9763 1427.1,87.9763 1429.07,87.9763 1431.03,87.9763 1433,87.9763 1434.97,87.9763 1436.94,87.9763 1438.9,87.9763 1440.87,87.9763 1442.84,87.9763 1444.81,87.9763 1446.77,87.9763 1448.74,87.9763 1450.71,87.9763 1452.68,87.9763 1454.64,87.9763 1456.61,87.9763 1458.58,87.9763 1460.55,87.9763 1462.51,87.9763 1464.48,87.9763 1466.45,87.9763 1468.42,87.9763 1470.38,87.9763 1472.35,87.9763 1474.32,87.9763 1476.28,87.9763 1478.25,87.9763 1480.22,87.9763 1482.19,87.9763 1484.15,87.9763 1486.12,87.9763 1488.09,87.9763 1490.06,87.9763 1492.02,87.9763 1493.99,87.9763 1495.96,87.9763 1497.93,87.9763 1499.89,380.826 1501.86,380.826 1503.83,380.826 1505.8,380.826 1507.76,380.826 1509.73,380.826 1511.7,380.826 1513.67,380.826 1515.63,380.826 1517.6,380.826 1519.57,380.826 1521.54,380.826 1523.5,380.826 1525.47,380.826 1527.44,380.826 1529.41,380.826 1531.37,380.826 1533.34,380.826 1535.31,380.826 1537.28,380.826 1539.24,380.826 1541.21,380.826 1543.18,380.826 1545.15,380.826 1547.11,393.646 1549.08,393.646 1551.05,393.646 1553.02,393.646 1554.98,393.646 1556.95,393.646 1558.92,393.646 1560.89,393.646 1562.85,393.646 1564.82,393.646 1566.79,393.646 1568.76,393.646 1570.72,393.646 1572.69,393.646 1574.66,393.646 1576.63,393.646 1578.59,393.646 1580.56,393.646 1582.53,393.646 1584.5,393.646 1586.46,393.646 1588.43,393.646 1590.4,393.646 1592.37,393.646 1594.33,393.646 1596.3,393.646 1598.27,393.646 1600.24,393.646 1602.2,393.646 1604.17,393.646 1606.14,393.646 1608.11,393.646 1610.07,393.646 1612.04,393.646 1614.01,393.646 1615.98,393.646 1617.94,393.646 1619.91,393.646 1621.88,393.646 1623.85,393.646 1625.81,393.646 1627.78,393.646 1629.75,393.646 1631.72,393.646 1633.68,393.646 1635.65,393.646 1637.62,393.646 1639.58,393.646 1641.55,393.646 1643.52,393.646 1645.49,393.646 1647.45,393.646 1649.42,393.646 1651.39,393.646 1653.36,393.646 1655.32,393.646 1657.29,393.646 1659.26,838.286 1661.23,838.286 1663.19,838.286 1665.16,838.286 1667.13,838.286 1669.1,838.286 1671.06,838.286 1673.03,838.286 1675,838.286 1676.97,838.286 1678.93,838.286 1680.9,838.286 1682.87,838.286 1684.84,838.286 1686.8,838.286 1688.77,838.286 1690.74,838.286 1692.71,838.286 1694.67,838.286 1696.64,838.286 1698.61,838.286 1700.58,838.286 1702.54,838.286 1704.51,838.286 1706.48,838.286 1708.45,838.286 1710.41,838.286 1712.38,838.286 1714.35,838.286 1716.32,838.286 1718.28,838.286 1720.25,838.286 1722.22,838.286 1724.19,838.286 1726.15,838.286 1728.12,838.286 1730.09,838.286 1732.06,838.286 1734.02,838.286 1735.99,838.286 1737.96,838.286 1739.93,838.286 1741.89,838.286 1743.86,838.286 1745.83,838.286 1747.8,838.286 1749.76,838.286 1751.73,838.286 1753.7,838.286 1755.67,838.286 1757.63,838.286 1759.6,838.286 1761.57,838.286 1763.54,838.286 1765.5,838.286 1767.47,838.286 1769.44,838.286 1771.41,838.286 1773.37,838.286 1775.34,838.286 1777.31,1303.38 1779.28,1124.52 1781.24,1124.52 1783.21,1124.52 1785.18,1124.52 1787.15,1124.52 1789.11,1124.52 1791.08,1124.52 1793.05,1124.52 1795.02,1124.52 1796.98,1124.52 1798.95,1124.52 1800.92,1124.52 1802.89,1124.52 1804.85,1124.52 1806.82,1124.52 1808.79,1124.52 1810.75,1124.52 1812.72,1124.52 1814.69,1124.52 1816.66,1124.52 1818.62,1124.52 1820.59,1124.52 1822.56,1124.52 1824.53,1124.52 1826.49,1124.52 1828.46,1124.52 1830.43,1124.52 1832.4,1124.52 1834.36,1124.52 1836.33,1124.52 1838.3,1124.52 1840.27,1124.52 1842.23,1124.52 1844.2,1124.52 1846.17,1124.52 1848.14,1124.52 1850.1,1011.62 1852.07,1011.62 1854.04,1011.62 1856.01,1011.62 1857.97,1011.62 1859.94,1011.62 1861.91,1011.62 1863.88,1011.62 1865.84,955.137 1867.81,955.137 1869.78,955.137 1871.75,955.137 1873.71,955.137 1875.68,955.137 1877.65,955.137 1879.62,955.137 1881.58,955.137 1883.55,955.137 1885.52,955.137 1887.49,955.137 1889.45,955.137 1891.42,955.137 1893.39,955.137 1895.36,955.137 1897.32,955.137 1899.29,955.137 1901.26,955.137 1903.23,955.137 1905.19,955.137 1907.16,955.137 1909.13,955.137 1911.1,955.137 1913.06,955.137 1915.03,955.137 1917,955.137 1918.97,955.137 1920.93,955.137 1922.9,955.137 1924.87,955.137 1926.84,955.137 1928.8,955.137 1930.77,955.137 1932.74,955.137 1934.71,955.137 1936.67,955.137 1938.64,955.137 1940.61,955.137 1942.58,955.137 1944.54,955.137 1946.51,955.137 1948.48,955.137 1950.45,955.137 1952.41,955.137 1954.38,955.137 1956.35,955.137 1958.32,1264.9 1960.28,1264.9 1962.25,1264.9 1964.22,1264.9 1966.19,1264.9 1968.15,1264.9 1970.12,1264.9 1972.09,1264.9 1974.05,1264.9 1976.02,1264.9 1977.99,1264.9 1979.96,1264.9 1981.92,1264.9 1983.89,1264.9 1985.86,1264.9 1987.83,1264.9 1989.79,1264.9 1991.76,1264.9 1993.73,1264.9 1995.7,1264.9 1997.66,1264.9 1999.63,1264.9 2001.6,1264.9 2003.57,1264.9 2005.53,1264.9 2007.5,1264.9 2009.47,1264.9 2011.44,1264.9 2013.4,1264.9 2015.37,1264.9 2017.34,1264.9 2019.31,1264.9 2021.27,1264.9 2023.24,934.666 2025.21,934.666 2027.18,934.666 2029.14,934.666 2031.11,934.666 2033.08,934.666 2035.05,934.666 2037.01,934.666 2038.98,934.666 2040.95,934.666 2042.92,934.666 2044.88,934.666 2046.85,934.666 2048.82,934.666 2050.79,934.666 2052.75,934.666 2054.72,934.666 2056.69,934.666 2058.66,934.666 2060.62,934.666 2062.59,934.666 2064.56,934.666 2066.53,934.666 2068.49,934.666 2070.46,934.666 2072.43,934.666 2074.4,934.666 2076.36,934.666 2078.33,934.666 2080.3,934.666 2082.27,934.666 2084.23,934.666 2086.2,934.666 2088.17,934.666 2090.14,934.666 2092.1,934.666 2094.07,934.666 2096.04,934.666 2098.01,934.666 2099.97,934.666 2101.94,934.666 2103.91,934.666 2105.88,934.666 2107.84,934.666 2109.81,934.666 2111.78,934.666 2113.75,934.666 2115.71,934.666 2117.68,934.666 2119.65,934.666 2121.62,934.666 2123.58,934.666 2125.55,934.666 2127.52,934.666 2129.49,934.666 2131.45,934.666 2133.42,934.666 2135.39,934.666 2137.36,934.666 2139.32,934.666 2141.29,934.666 2143.26,934.666 2145.22,1012.25 2147.19,1012.25 2149.16,1012.25 2151.13,1012.25 2153.09,1012.25 2155.06,1012.25 2157.03,1012.25 2159,1012.25 2160.96,1012.25 2162.93,1012.25 2164.9,1012.25 2166.87,1012.25 2168.83,1012.25 2170.8,1012.25 2172.77,1012.25 2174.74,1012.25 2176.7,1012.25 2178.67,1012.25 2180.64,1012.25 2182.61,1012.25 "></polyline>
<path clip-path="url(#clip270)" d="M225.629 198.898 L623.532 198.898 L623.532 95.2176 L225.629 95.2176  Z" fill="#ffffff" fill-rule="evenodd" fill-opacity="1"></path>
<polyline clip-path="url(#clip270)" style="stroke:#000000; stroke-linecap:round; stroke-linejoin:round; stroke-width:4; stroke-opacity:1; fill:none" points="225.629,198.898 623.532,198.898 623.532,95.2176 225.629,95.2176 225.629,198.898 "></polyline>
<polyline clip-path="url(#clip270)" style="stroke:#0000ff; stroke-linecap:round; stroke-linejoin:round; stroke-width:4; stroke-opacity:1; fill:none" points="248.802,147.058 387.836,147.058 "></polyline>
<path clip-path="url(#clip270)" d="M415.291 160.449 L415.291 174.199 L411.009 174.199 L411.009 138.412 L415.291 138.412 L415.291 142.347 Q416.634 140.032 418.671 138.921 Q420.731 137.787 423.578 137.787 Q428.3 137.787 431.24 141.537 Q434.203 145.287 434.203 151.398 Q434.203 157.509 431.24 161.259 Q428.3 165.009 423.578 165.009 Q420.731 165.009 418.671 163.898 Q416.634 162.763 415.291 160.449 M429.782 151.398 Q429.782 146.699 427.837 144.037 Q425.916 141.352 422.537 141.352 Q419.157 141.352 417.213 144.037 Q415.291 146.699 415.291 151.398 Q415.291 156.097 417.213 158.782 Q419.157 161.444 422.537 161.444 Q425.916 161.444 427.837 158.782 Q429.782 156.097 429.782 151.398 Z" fill="#000000" fill-rule="nonzero" fill-opacity="1"></path><path clip-path="url(#clip270)" d="M451.31 141.398 Q447.884 141.398 445.893 144.083 Q443.902 146.745 443.902 151.398 Q443.902 156.051 445.87 158.736 Q447.861 161.398 451.31 161.398 Q454.712 161.398 456.703 158.713 Q458.694 156.027 458.694 151.398 Q458.694 146.791 456.703 144.106 Q454.712 141.398 451.31 141.398 M451.31 137.787 Q456.865 137.787 460.036 141.398 Q463.208 145.009 463.208 151.398 Q463.208 157.764 460.036 161.398 Q456.865 165.009 451.31 165.009 Q445.731 165.009 442.56 161.398 Q439.411 157.764 439.411 151.398 Q439.411 145.009 442.56 141.398 Q445.731 137.787 451.31 137.787 Z" fill="#000000" fill-rule="nonzero" fill-opacity="1"></path><path clip-path="url(#clip270)" d="M474.388 160.449 L474.388 174.199 L470.106 174.199 L470.106 138.412 L474.388 138.412 L474.388 142.347 Q475.731 140.032 477.768 138.921 Q479.828 137.787 482.675 137.787 Q487.397 137.787 490.337 141.537 Q493.3 145.287 493.3 151.398 Q493.3 157.509 490.337 161.259 Q487.397 165.009 482.675 165.009 Q479.828 165.009 477.768 163.898 Q475.731 162.763 474.388 160.449 M488.879 151.398 Q488.879 146.699 486.934 144.037 Q485.013 141.352 481.633 141.352 Q478.254 141.352 476.309 144.037 Q474.388 146.699 474.388 151.398 Q474.388 156.097 476.309 158.782 Q478.254 161.444 481.633 161.444 Q485.013 161.444 486.934 158.782 Q488.879 156.097 488.879 151.398 Z" fill="#000000" fill-rule="nonzero" fill-opacity="1"></path><path clip-path="url(#clip270)" d="M531.957 139.176 L531.957 143.203 Q530.152 142.277 528.207 141.815 Q526.263 141.352 524.18 141.352 Q521.008 141.352 519.411 142.324 Q517.837 143.296 517.837 145.24 Q517.837 146.722 518.971 147.578 Q520.106 148.412 523.531 149.176 L524.99 149.5 Q529.527 150.472 531.425 152.254 Q533.346 154.014 533.346 157.185 Q533.346 160.796 530.476 162.902 Q527.629 165.009 522.629 165.009 Q520.545 165.009 518.277 164.592 Q516.031 164.199 513.531 163.388 L513.531 158.99 Q515.893 160.217 518.184 160.842 Q520.476 161.444 522.721 161.444 Q525.73 161.444 527.351 160.426 Q528.971 159.384 528.971 157.509 Q528.971 155.773 527.791 154.847 Q526.633 153.921 522.675 153.064 L521.193 152.717 Q517.235 151.884 515.476 150.171 Q513.717 148.435 513.717 145.426 Q513.717 141.768 516.309 139.778 Q518.902 137.787 523.67 137.787 Q526.031 137.787 528.115 138.134 Q530.198 138.481 531.957 139.176 Z" fill="#000000" fill-rule="nonzero" fill-opacity="1"></path><path clip-path="url(#clip270)" d="M540.129 138.412 L544.388 138.412 L544.388 164.338 L540.129 164.338 L540.129 138.412 M540.129 128.319 L544.388 128.319 L544.388 133.713 L540.129 133.713 L540.129 128.319 Z" fill="#000000" fill-rule="nonzero" fill-opacity="1"></path><path clip-path="url(#clip270)" d="M551.448 138.412 L571.679 138.412 L571.679 142.301 L555.661 160.935 L571.679 160.935 L571.679 164.338 L550.869 164.338 L550.869 160.449 L566.888 141.815 L551.448 141.815 L551.448 138.412 Z" fill="#000000" fill-rule="nonzero" fill-opacity="1"></path><path clip-path="url(#clip270)" d="M600.36 150.31 L600.36 152.393 L580.776 152.393 Q581.054 156.791 583.415 159.106 Q585.8 161.398 590.036 161.398 Q592.489 161.398 594.781 160.796 Q597.096 160.194 599.364 158.99 L599.364 163.018 Q597.073 163.99 594.665 164.5 Q592.258 165.009 589.781 165.009 Q583.577 165.009 579.943 161.398 Q576.332 157.787 576.332 151.629 Q576.332 145.264 579.758 141.537 Q583.207 137.787 589.04 137.787 Q594.272 137.787 597.304 141.166 Q600.36 144.523 600.36 150.31 M596.1 149.06 Q596.054 145.565 594.133 143.481 Q592.235 141.398 589.087 141.398 Q585.522 141.398 583.369 143.412 Q581.239 145.426 580.915 149.083 L596.1 149.06 Z" fill="#000000" fill-rule="nonzero" fill-opacity="1"></path><polyline clip-path="url(#clip270)" style="stroke:#000000; stroke-linecap:round; stroke-linejoin:round; stroke-width:4; stroke-opacity:1; fill:none" points="2241.63,1486.45 2241.63,47.2441 "></polyline>
<polyline clip-path="url(#clip270)" style="stroke:#000000; stroke-linecap:round; stroke-linejoin:round; stroke-width:4; stroke-opacity:1; fill:none" points="2241.63,1445.72 2222.73,1445.72 "></polyline>
<polyline clip-path="url(#clip270)" style="stroke:#000000; stroke-linecap:round; stroke-linejoin:round; stroke-width:4; stroke-opacity:1; fill:none" points="2241.63,540.556 2222.73,540.556 "></polyline>
<path clip-path="url(#clip270)" d="M2278.3 1465.51 L2285.94 1465.51 L2285.94 1439.14 L2277.63 1440.81 L2277.63 1436.55 L2285.89 1434.88 L2290.57 1434.88 L2290.57 1465.51 L2298.21 1465.51 L2298.21 1469.44 L2278.3 1469.44 L2278.3 1465.51 Z" fill="#000000" fill-rule="nonzero" fill-opacity="1"></path><path clip-path="url(#clip270)" d="M2317.65 1437.96 Q2314.04 1437.96 2312.21 1441.53 Q2310.41 1445.07 2310.41 1452.2 Q2310.41 1459.3 2312.21 1462.87 Q2314.04 1466.41 2317.65 1466.41 Q2321.29 1466.41 2323.09 1462.87 Q2324.92 1459.3 2324.92 1452.2 Q2324.92 1445.07 2323.09 1441.53 Q2321.29 1437.96 2317.65 1437.96 M2317.65 1434.26 Q2323.46 1434.26 2326.52 1438.86 Q2329.6 1443.45 2329.6 1452.2 Q2329.6 1460.92 2326.52 1465.53 Q2323.46 1470.11 2317.65 1470.11 Q2311.84 1470.11 2308.77 1465.53 Q2305.71 1460.92 2305.71 1452.2 Q2305.71 1443.45 2308.77 1438.86 Q2311.84 1434.26 2317.65 1434.26 Z" fill="#000000" fill-rule="nonzero" fill-opacity="1"></path><path clip-path="url(#clip270)" d="M2339.3 1416.45 Q2336.37 1416.45 2334.88 1419.35 Q2333.42 1422.23 2333.42 1428.02 Q2333.42 1433.8 2334.88 1436.69 Q2336.37 1439.57 2339.3 1439.57 Q2342.26 1439.57 2343.72 1436.69 Q2345.21 1433.8 2345.21 1428.02 Q2345.21 1422.23 2343.72 1419.35 Q2342.26 1416.45 2339.3 1416.45 M2339.3 1413.45 Q2344.02 1413.45 2346.51 1417.19 Q2349.01 1420.91 2349.01 1428.02 Q2349.01 1435.11 2346.51 1438.85 Q2344.02 1442.58 2339.3 1442.58 Q2334.58 1442.58 2332.08 1438.85 Q2329.6 1435.11 2329.6 1428.02 Q2329.6 1420.91 2332.08 1417.19 Q2334.58 1413.45 2339.3 1413.45 Z" fill="#000000" fill-rule="nonzero" fill-opacity="1"></path><path clip-path="url(#clip270)" d="M2278.3 560.349 L2285.94 560.349 L2285.94 533.983 L2277.63 535.65 L2277.63 531.39 L2285.89 529.724 L2290.57 529.724 L2290.57 560.349 L2298.21 560.349 L2298.21 564.284 L2278.3 564.284 L2278.3 560.349 Z" fill="#000000" fill-rule="nonzero" fill-opacity="1"></path><path clip-path="url(#clip270)" d="M2317.65 532.802 Q2314.04 532.802 2312.21 536.367 Q2310.41 539.909 2310.41 547.038 Q2310.41 554.145 2312.21 557.71 Q2314.04 561.251 2317.65 561.251 Q2321.29 561.251 2323.09 557.71 Q2324.92 554.145 2324.92 547.038 Q2324.92 539.909 2323.09 536.367 Q2321.29 532.802 2317.65 532.802 M2317.65 529.099 Q2323.46 529.099 2326.52 533.705 Q2329.6 538.288 2329.6 547.038 Q2329.6 555.765 2326.52 560.372 Q2323.46 564.955 2317.65 564.955 Q2311.84 564.955 2308.77 560.372 Q2305.71 555.765 2305.71 547.038 Q2305.71 538.288 2308.77 533.705 Q2311.84 529.099 2317.65 529.099 Z" fill="#000000" fill-rule="nonzero" fill-opacity="1"></path><path clip-path="url(#clip270)" d="M2334.17 533.676 L2347.43 533.676 L2347.43 536.873 L2329.6 536.873 L2329.6 533.676 Q2331.76 531.438 2335.49 527.676 Q2339.23 523.896 2340.19 522.805 Q2342.01 520.755 2342.73 519.344 Q2343.46 517.915 2343.46 516.542 Q2343.46 514.304 2341.88 512.893 Q2340.32 511.483 2337.8 511.483 Q2336.01 511.483 2334.02 512.103 Q2332.04 512.724 2329.79 513.984 L2329.79 510.147 Q2332.08 509.226 2334.07 508.756 Q2336.07 508.285 2337.72 508.285 Q2342.09 508.285 2344.68 510.467 Q2347.28 512.649 2347.28 516.298 Q2347.28 518.028 2346.62 519.589 Q2345.98 521.131 2344.27 523.238 Q2343.8 523.783 2341.28 526.397 Q2338.76 528.993 2334.17 533.676 Z" fill="#000000" fill-rule="nonzero" fill-opacity="1"></path><polyline clip-path="url(#clip272)" style="stroke:#ff0000; stroke-linecap:round; stroke-linejoin:round; stroke-width:4; stroke-opacity:1; fill:none" points="2182.61,87.9763 2143.69,87.9763 2143.69,311.322 2021.33,311.322 2021.33,540.556 1957.67,540.556 1957.67,556.945 1865.57,556.945 1865.57,597.101 1848.54,597.101 1848.54,735.979 1777.84,735.979 1777.84,957.3 1776.83,957.3 1776.83,1129.38 1658.46,1129.38 1658.46,1309.48 1086.81,1309.48 1086.81,1445.72 215.136,1445.72 "></polyline>
<path clip-path="url(#clip270)" d="M998.705 198.898 L1399.04 198.898 L1399.04 95.2176 L998.705 95.2176  Z" fill="#ffffff" fill-rule="evenodd" fill-opacity="1"></path>
<polyline clip-path="url(#clip270)" style="stroke:#000000; stroke-linecap:round; stroke-linejoin:round; stroke-width:4; stroke-opacity:1; fill:none" points="998.705,198.898 1399.04,198.898 1399.04,95.2176 998.705,95.2176 998.705,198.898 "></polyline>
<polyline clip-path="url(#clip270)" style="stroke:#ff0000; stroke-linecap:round; stroke-linejoin:round; stroke-width:4; stroke-opacity:1; fill:none" points="1021.88,147.058 1160.91,147.058 "></polyline>
<path clip-path="url(#clip270)" d="M1184.08 128.319 L1188.34 128.319 L1188.34 164.338 L1184.08 164.338 L1184.08 128.319 Z" fill="#000000" fill-rule="nonzero" fill-opacity="1"></path><path clip-path="url(#clip270)" d="M1197.26 138.412 L1201.51 138.412 L1201.51 164.338 L1197.26 164.338 L1197.26 138.412 M1197.26 128.319 L1201.51 128.319 L1201.51 133.713 L1197.26 133.713 L1197.26 128.319 Z" fill="#000000" fill-rule="nonzero" fill-opacity="1"></path><path clip-path="url(#clip270)" d="M1231.98 148.689 L1231.98 164.338 L1227.72 164.338 L1227.72 148.828 Q1227.72 145.148 1226.28 143.319 Q1224.85 141.49 1221.98 141.49 Q1218.53 141.49 1216.54 143.69 Q1214.55 145.889 1214.55 149.685 L1214.55 164.338 L1210.26 164.338 L1210.26 138.412 L1214.55 138.412 L1214.55 142.44 Q1216.07 140.102 1218.14 138.944 Q1220.22 137.787 1222.93 137.787 Q1227.39 137.787 1229.69 140.565 Q1231.98 143.319 1231.98 148.689 Z" fill="#000000" fill-rule="nonzero" fill-opacity="1"></path><path clip-path="url(#clip270)" d="M1262.65 150.31 L1262.65 152.393 L1243.07 152.393 Q1243.34 156.791 1245.7 159.106 Q1248.09 161.398 1252.32 161.398 Q1254.78 161.398 1257.07 160.796 Q1259.38 160.194 1261.65 158.99 L1261.65 163.018 Q1259.36 163.99 1256.95 164.5 Q1254.55 165.009 1252.07 165.009 Q1245.87 165.009 1242.23 161.398 Q1238.62 157.787 1238.62 151.629 Q1238.62 145.264 1242.05 141.537 Q1245.5 137.787 1251.33 137.787 Q1256.56 137.787 1259.59 141.166 Q1262.65 144.523 1262.65 150.31 M1258.39 149.06 Q1258.34 145.565 1256.42 143.481 Q1254.52 141.398 1251.38 141.398 Q1247.81 141.398 1245.66 143.412 Q1243.53 145.426 1243.2 149.083 L1258.39 149.06 Z" fill="#000000" fill-rule="nonzero" fill-opacity="1"></path><path clip-path="url(#clip270)" d="M1281.42 151.305 Q1276.26 151.305 1274.27 152.486 Q1272.28 153.666 1272.28 156.514 Q1272.28 158.782 1273.76 160.125 Q1275.26 161.444 1277.83 161.444 Q1281.38 161.444 1283.51 158.944 Q1285.66 156.421 1285.66 152.254 L1285.66 151.305 L1281.42 151.305 M1289.92 149.546 L1289.92 164.338 L1285.66 164.338 L1285.66 160.402 Q1284.2 162.763 1282.02 163.898 Q1279.85 165.009 1276.7 165.009 Q1272.72 165.009 1270.36 162.787 Q1268.02 160.541 1268.02 156.791 Q1268.02 152.416 1270.94 150.194 Q1273.88 147.972 1279.69 147.972 L1285.66 147.972 L1285.66 147.555 Q1285.66 144.615 1283.71 143.018 Q1281.79 141.398 1278.3 141.398 Q1276.07 141.398 1273.97 141.93 Q1271.86 142.463 1269.92 143.527 L1269.92 139.592 Q1272.26 138.69 1274.45 138.25 Q1276.65 137.787 1278.74 137.787 Q1284.36 137.787 1287.14 140.703 Q1289.92 143.62 1289.92 149.546 Z" fill="#000000" fill-rule="nonzero" fill-opacity="1"></path><path clip-path="url(#clip270)" d="M1315.75 151.074 Q1315.75 146.444 1313.83 143.898 Q1311.93 141.352 1308.48 141.352 Q1305.06 141.352 1303.13 143.898 Q1301.24 146.444 1301.24 151.074 Q1301.24 155.68 1303.13 158.226 Q1305.06 160.773 1308.48 160.773 Q1311.93 160.773 1313.83 158.226 Q1315.75 155.68 1315.75 151.074 M1320.01 161.12 Q1320.01 167.74 1317.07 170.958 Q1314.13 174.199 1308.07 174.199 Q1305.82 174.199 1303.83 173.851 Q1301.84 173.527 1299.96 172.833 L1299.96 168.689 Q1301.84 169.708 1303.67 170.194 Q1305.5 170.68 1307.39 170.68 Q1311.58 170.68 1313.67 168.481 Q1315.75 166.305 1315.75 161.884 L1315.75 159.777 Q1314.43 162.069 1312.37 163.203 Q1310.31 164.338 1307.44 164.338 Q1302.67 164.338 1299.76 160.703 Q1296.84 157.069 1296.84 151.074 Q1296.84 145.055 1299.76 141.421 Q1302.67 137.787 1307.44 137.787 Q1310.31 137.787 1312.37 138.921 Q1314.43 140.055 1315.75 142.347 L1315.75 138.412 L1320.01 138.412 L1320.01 161.12 Z" fill="#000000" fill-rule="nonzero" fill-opacity="1"></path><path clip-path="url(#clip270)" d="M1350.96 150.31 L1350.96 152.393 L1331.38 152.393 Q1331.65 156.791 1334.01 159.106 Q1336.4 161.398 1340.63 161.398 Q1343.09 161.398 1345.38 160.796 Q1347.69 160.194 1349.96 158.99 L1349.96 163.018 Q1347.67 163.99 1345.26 164.5 Q1342.86 165.009 1340.38 165.009 Q1334.18 165.009 1330.54 161.398 Q1326.93 157.787 1326.93 151.629 Q1326.93 145.264 1330.36 141.537 Q1333.81 137.787 1339.64 137.787 Q1344.87 137.787 1347.9 141.166 Q1350.96 144.523 1350.96 150.31 M1346.7 149.06 Q1346.65 145.565 1344.73 143.481 Q1342.83 141.398 1339.69 141.398 Q1336.12 141.398 1333.97 143.412 Q1331.84 145.426 1331.51 149.083 L1346.7 149.06 Z" fill="#000000" fill-rule="nonzero" fill-opacity="1"></path><path clip-path="url(#clip270)" d="M1374.48 139.176 L1374.48 143.203 Q1372.67 142.277 1370.73 141.815 Q1368.78 141.352 1366.7 141.352 Q1363.53 141.352 1361.93 142.324 Q1360.36 143.296 1360.36 145.24 Q1360.36 146.722 1361.49 147.578 Q1362.63 148.412 1366.05 149.176 L1367.51 149.5 Q1372.05 150.472 1373.94 152.254 Q1375.87 154.014 1375.87 157.185 Q1375.87 160.796 1373 162.902 Q1370.15 165.009 1365.15 165.009 Q1363.06 165.009 1360.8 164.592 Q1358.55 164.199 1356.05 163.388 L1356.05 158.99 Q1358.41 160.217 1360.7 160.842 Q1363 161.444 1365.24 161.444 Q1368.25 161.444 1369.87 160.426 Q1371.49 159.384 1371.49 157.509 Q1371.49 155.773 1370.31 154.847 Q1369.15 153.921 1365.19 153.064 L1363.71 152.717 Q1359.75 151.884 1358 150.171 Q1356.24 148.435 1356.24 145.426 Q1356.24 141.768 1358.83 139.778 Q1361.42 137.787 1366.19 137.787 Q1368.55 137.787 1370.63 138.134 Q1372.72 138.481 1374.48 139.176 Z" fill="#000000" fill-rule="nonzero" fill-opacity="1"></path></svg>