<svg xmlns="http://www.w3.org/2000/svg" xmlns:xlink="http://www.w3.org/1999/xlink" width="600" height="400" viewBox="0 0 2400 1600">
<defs>
  <clipPath id="clip350">
    <rect x="0" y="0" width="2400" height="1600"></rect>
  </clipPath>
</defs>
<path clip-path="url(#clip350)" d="M0 1600 L2400 1600 L2400 0 L0 0  Z" fill="#ffffff" fill-rule="evenodd" fill-opacity="1"></path>
<defs>
  <clipPath id="clip351">
    <rect x="480" y="0" width="1681" height="1600"></rect>
  </clipPath>
</defs>
<path clip-path="url(#clip350)" d="M185.927 1486.45 L2242.55 1486.45 L2242.55 47.2441 L185.927 47.2441  Z" fill="#ffffff" fill-rule="evenodd" fill-opacity="1"></path>
<defs>
  <clipPath id="clip352">
    <rect x="185" y="47" width="2058" height="1440"></rect>
  </clipPath>
</defs>
<polyline clip-path="url(#clip352)" style="stroke:#000000; stroke-linecap:round; stroke-linejoin:round; stroke-width:2; stroke-opacity:0.1; fill:none" points="244.133,1486.45 244.133,47.2441 "></polyline>
<polyline clip-path="url(#clip352)" style="stroke:#000000; stroke-linecap:round; stroke-linejoin:round; stroke-width:2; stroke-opacity:0.1; fill:none" points="729.186,1486.45 729.186,47.2441 "></polyline>
<polyline clip-path="url(#clip352)" style="stroke:#000000; stroke-linecap:round; stroke-linejoin:round; stroke-width:2; stroke-opacity:0.1; fill:none" points="1214.24,1486.45 1214.24,47.2441 "></polyline>
<polyline clip-path="url(#clip352)" style="stroke:#000000; stroke-linecap:round; stroke-linejoin:round; stroke-width:2; stroke-opacity:0.1; fill:none" points="1699.29,1486.45 1699.29,47.2441 "></polyline>
<polyline clip-path="url(#clip352)" style="stroke:#000000; stroke-linecap:round; stroke-linejoin:round; stroke-width:2; stroke-opacity:0.1; fill:none" points="2184.35,1486.45 2184.35,47.2441 "></polyline>
<polyline clip-path="url(#clip350)" style="stroke:#000000; stroke-linecap:round; stroke-linejoin:round; stroke-width:4; stroke-opacity:1; fill:none" points="185.927,1486.45 2242.55,1486.45 "></polyline>
<polyline clip-path="url(#clip350)" style="stroke:#000000; stroke-linecap:round; stroke-linejoin:round; stroke-width:4; stroke-opacity:1; fill:none" points="244.133,1486.45 244.133,1467.55 "></polyline>
<polyline clip-path="url(#clip350)" style="stroke:#000000; stroke-linecap:round; stroke-linejoin:round; stroke-width:4; stroke-opacity:1; fill:none" points="729.186,1486.45 729.186,1467.55 "></polyline>
<polyline clip-path="url(#clip350)" style="stroke:#000000; stroke-linecap:round; stroke-linejoin:round; stroke-width:4; stroke-opacity:1; fill:none" points="1214.24,1486.45 1214.24,1467.55 "></polyline>
<polyline clip-path="url(#clip350)" style="stroke:#000000; stroke-linecap:round; stroke-linejoin:round; stroke-width:4; stroke-opacity:1; fill:none" points="1699.29,1486.45 1699.29,1467.55 "></polyline>
<polyline clip-path="url(#clip350)" style="stroke:#000000; stroke-linecap:round; stroke-linejoin:round; stroke-width:4; stroke-opacity:1; fill:none" points="2184.35,1486.45 2184.35,1467.55 "></polyline>
<path clip-path="url(#clip350)" d="M206.437 1517.37 Q202.826 1517.37 200.997 1520.93 Q199.191 1524.47 199.191 1531.6 Q199.191 1538.71 200.997 1542.27 Q202.826 1545.82 206.437 1545.82 Q210.071 1545.82 211.876 1542.27 Q213.705 1538.71 213.705 1531.6 Q213.705 1524.47 211.876 1520.93 Q210.071 1517.37 206.437 1517.37 M206.437 1513.66 Q212.247 1513.66 215.302 1518.27 Q218.381 1522.85 218.381 1531.6 Q218.381 1540.33 215.302 1544.94 Q212.247 1549.52 206.437 1549.52 Q200.626 1549.52 197.548 1544.94 Q194.492 1540.33 194.492 1531.6 Q194.492 1522.85 197.548 1518.27 Q200.626 1513.66 206.437 1513.66 Z" fill="#000000" fill-rule="nonzero" fill-opacity="1"></path><path clip-path="url(#clip350)" d="M226.599 1542.97 L231.483 1542.97 L231.483 1548.85 L226.599 1548.85 L226.599 1542.97 Z" fill="#000000" fill-rule="nonzero" fill-opacity="1"></path><path clip-path="url(#clip350)" d="M251.668 1517.37 Q248.057 1517.37 246.228 1520.93 Q244.423 1524.47 244.423 1531.6 Q244.423 1538.71 246.228 1542.27 Q248.057 1545.82 251.668 1545.82 Q255.302 1545.82 257.108 1542.27 Q258.936 1538.71 258.936 1531.6 Q258.936 1524.47 257.108 1520.93 Q255.302 1517.37 251.668 1517.37 M251.668 1513.66 Q257.478 1513.66 260.534 1518.27 Q263.612 1522.85 263.612 1531.6 Q263.612 1540.33 260.534 1544.94 Q257.478 1549.52 251.668 1549.52 Q245.858 1549.52 242.779 1544.94 Q239.723 1540.33 239.723 1531.6 Q239.723 1522.85 242.779 1518.27 Q245.858 1513.66 251.668 1513.66 Z" fill="#000000" fill-rule="nonzero" fill-opacity="1"></path><path clip-path="url(#clip350)" d="M281.83 1517.37 Q278.219 1517.37 276.39 1520.93 Q274.584 1524.47 274.584 1531.6 Q274.584 1538.71 276.39 1542.27 Q278.219 1545.82 281.83 1545.82 Q285.464 1545.82 287.27 1542.27 Q289.098 1538.71 289.098 1531.6 Q289.098 1524.47 287.27 1520.93 Q285.464 1517.37 281.83 1517.37 M281.83 1513.66 Q287.64 1513.66 290.695 1518.27 Q293.774 1522.85 293.774 1531.6 Q293.774 1540.33 290.695 1544.94 Q287.64 1549.52 281.83 1549.52 Q276.02 1549.52 272.941 1544.94 Q269.885 1540.33 269.885 1531.6 Q269.885 1522.85 272.941 1518.27 Q276.02 1513.66 281.83 1513.66 Z" fill="#000000" fill-rule="nonzero" fill-opacity="1"></path><path clip-path="url(#clip350)" d="M691.988 1517.37 Q688.376 1517.37 686.548 1520.93 Q684.742 1524.47 684.742 1531.6 Q684.742 1538.71 686.548 1542.27 Q688.376 1545.82 691.988 1545.82 Q695.622 1545.82 697.427 1542.27 Q699.256 1538.71 699.256 1531.6 Q699.256 1524.47 697.427 1520.93 Q695.622 1517.37 691.988 1517.37 M691.988 1513.66 Q697.798 1513.66 700.853 1518.27 Q703.932 1522.85 703.932 1531.6 Q703.932 1540.33 700.853 1544.94 Q697.798 1549.52 691.988 1549.52 Q686.177 1549.52 683.099 1544.94 Q680.043 1540.33 680.043 1531.6 Q680.043 1522.85 683.099 1518.27 Q686.177 1513.66 691.988 1513.66 Z" fill="#000000" fill-rule="nonzero" fill-opacity="1"></path><path clip-path="url(#clip350)" d="M712.149 1542.97 L717.034 1542.97 L717.034 1548.85 L712.149 1548.85 L712.149 1542.97 Z" fill="#000000" fill-rule="nonzero" fill-opacity="1"></path><path clip-path="url(#clip350)" d="M731.247 1544.91 L747.566 1544.91 L747.566 1548.85 L725.622 1548.85 L725.622 1544.91 Q728.284 1542.16 732.867 1537.53 Q737.473 1532.88 738.654 1531.53 Q740.899 1529.01 741.779 1527.27 Q742.682 1525.51 742.682 1523.82 Q742.682 1521.07 740.737 1519.33 Q738.816 1517.6 735.714 1517.6 Q733.515 1517.6 731.061 1518.36 Q728.631 1519.13 725.853 1520.68 L725.853 1515.95 Q728.677 1514.82 731.131 1514.24 Q733.585 1513.66 735.622 1513.66 Q740.992 1513.66 744.186 1516.35 Q747.381 1519.03 747.381 1523.52 Q747.381 1525.65 746.571 1527.57 Q745.784 1529.47 743.677 1532.07 Q743.098 1532.74 739.997 1535.95 Q736.895 1539.15 731.247 1544.91 Z" fill="#000000" fill-rule="nonzero" fill-opacity="1"></path><path clip-path="url(#clip350)" d="M757.427 1514.29 L775.783 1514.29 L775.783 1518.22 L761.709 1518.22 L761.709 1526.7 Q762.728 1526.35 763.746 1526.19 Q764.765 1526 765.783 1526 Q771.57 1526 774.95 1529.17 Q778.33 1532.34 778.33 1537.76 Q778.33 1543.34 774.857 1546.44 Q771.385 1549.52 765.066 1549.52 Q762.89 1549.52 760.621 1549.15 Q758.376 1548.78 755.969 1548.04 L755.969 1543.34 Q758.052 1544.47 760.274 1545.03 Q762.496 1545.58 764.973 1545.58 Q768.978 1545.58 771.316 1543.48 Q773.654 1541.37 773.654 1537.76 Q773.654 1534.15 771.316 1532.04 Q768.978 1529.94 764.973 1529.94 Q763.098 1529.94 761.223 1530.35 Q759.371 1530.77 757.427 1531.65 L757.427 1514.29 Z" fill="#000000" fill-rule="nonzero" fill-opacity="1"></path><path clip-path="url(#clip350)" d="M1176.54 1517.37 Q1172.93 1517.37 1171.1 1520.93 Q1169.3 1524.47 1169.3 1531.6 Q1169.3 1538.71 1171.1 1542.27 Q1172.93 1545.82 1176.54 1545.82 Q1180.18 1545.82 1181.98 1542.27 Q1183.81 1538.71 1183.81 1531.6 Q1183.81 1524.47 1181.98 1520.93 Q1180.18 1517.37 1176.54 1517.37 M1176.54 1513.66 Q1182.35 1513.66 1185.41 1518.27 Q1188.49 1522.85 1188.49 1531.6 Q1188.49 1540.33 1185.41 1544.94 Q1182.35 1549.52 1176.54 1549.52 Q1170.73 1549.52 1167.65 1544.94 Q1164.6 1540.33 1164.6 1531.6 Q1164.6 1522.85 1167.65 1518.27 Q1170.73 1513.66 1176.54 1513.66 Z" fill="#000000" fill-rule="nonzero" fill-opacity="1"></path><path clip-path="url(#clip350)" d="M1196.71 1542.97 L1201.59 1542.97 L1201.59 1548.85 L1196.71 1548.85 L1196.71 1542.97 Z" fill="#000000" fill-rule="nonzero" fill-opacity="1"></path><path clip-path="url(#clip350)" d="M1211.82 1514.29 L1230.18 1514.29 L1230.18 1518.22 L1216.1 1518.22 L1216.1 1526.7 Q1217.12 1526.35 1218.14 1526.19 Q1219.16 1526 1220.18 1526 Q1225.96 1526 1229.34 1529.17 Q1232.72 1532.34 1232.72 1537.76 Q1232.72 1543.34 1229.25 1546.44 Q1225.78 1549.52 1219.46 1549.52 Q1217.28 1549.52 1215.02 1549.15 Q1212.77 1548.78 1210.36 1548.04 L1210.36 1543.34 Q1212.45 1544.47 1214.67 1545.03 Q1216.89 1545.58 1219.37 1545.58 Q1223.37 1545.58 1225.71 1543.48 Q1228.05 1541.37 1228.05 1537.76 Q1228.05 1534.15 1225.71 1532.04 Q1223.37 1529.94 1219.37 1529.94 Q1217.49 1529.94 1215.62 1530.35 Q1213.77 1530.77 1211.82 1531.65 L1211.82 1514.29 Z" fill="#000000" fill-rule="nonzero" fill-opacity="1"></path><path clip-path="url(#clip350)" d="M1251.94 1517.37 Q1248.33 1517.37 1246.5 1520.93 Q1244.69 1524.47 1244.69 1531.6 Q1244.69 1538.71 1246.5 1542.27 Q1248.33 1545.82 1251.94 1545.82 Q1255.57 1545.82 1257.38 1542.27 Q1259.2 1538.71 1259.2 1531.6 Q1259.2 1524.47 1257.38 1520.93 Q1255.57 1517.37 1251.94 1517.37 M1251.94 1513.66 Q1257.75 1513.66 1260.8 1518.27 Q1263.88 1522.85 1263.88 1531.6 Q1263.88 1540.33 1260.8 1544.94 Q1257.75 1549.52 1251.94 1549.52 Q1246.13 1549.52 1243.05 1544.94 Q1239.99 1540.33 1239.99 1531.6 Q1239.99 1522.85 1243.05 1518.27 Q1246.13 1513.66 1251.94 1513.66 Z" fill="#000000" fill-rule="nonzero" fill-opacity="1"></path><path clip-path="url(#clip350)" d="M1662.09 1517.37 Q1658.48 1517.37 1656.65 1520.93 Q1654.85 1524.47 1654.85 1531.6 Q1654.85 1538.71 1656.65 1542.27 Q1658.48 1545.82 1662.09 1545.82 Q1665.73 1545.82 1667.53 1542.27 Q1669.36 1538.71 1669.36 1531.6 Q1669.36 1524.47 1667.53 1520.93 Q1665.73 1517.37 1662.09 1517.37 M1662.09 1513.66 Q1667.9 1513.66 1670.96 1518.27 Q1674.04 1522.85 1674.04 1531.6 Q1674.04 1540.33 1670.96 1544.94 Q1667.9 1549.52 1662.09 1549.52 Q1656.28 1549.52 1653.21 1544.94 Q1650.15 1540.33 1650.15 1531.6 Q1650.15 1522.85 1653.21 1518.27 Q1656.28 1513.66 1662.09 1513.66 Z" fill="#000000" fill-rule="nonzero" fill-opacity="1"></path><path clip-path="url(#clip350)" d="M1682.26 1542.97 L1687.14 1542.97 L1687.14 1548.85 L1682.26 1548.85 L1682.26 1542.97 Z" fill="#000000" fill-rule="nonzero" fill-opacity="1"></path><path clip-path="url(#clip350)" d="M1696.14 1514.29 L1718.37 1514.29 L1718.37 1516.28 L1705.82 1548.85 L1700.94 1548.85 L1712.74 1518.22 L1696.14 1518.22 L1696.14 1514.29 Z" fill="#000000" fill-rule="nonzero" fill-opacity="1"></path><path clip-path="url(#clip350)" d="M1727.53 1514.29 L1745.89 1514.29 L1745.89 1518.22 L1731.82 1518.22 L1731.82 1526.7 Q1732.83 1526.35 1733.85 1526.19 Q1734.87 1526 1735.89 1526 Q1741.68 1526 1745.06 1529.17 Q1748.44 1532.34 1748.44 1537.76 Q1748.44 1543.34 1744.96 1546.44 Q1741.49 1549.52 1735.17 1549.52 Q1733 1549.52 1730.73 1549.15 Q1728.48 1548.78 1726.08 1548.04 L1726.08 1543.34 Q1728.16 1544.47 1730.38 1545.03 Q1732.6 1545.58 1735.08 1545.58 Q1739.08 1545.58 1741.42 1543.48 Q1743.76 1541.37 1743.76 1537.76 Q1743.76 1534.15 1741.42 1532.04 Q1739.08 1529.94 1735.08 1529.94 Q1733.2 1529.94 1731.33 1530.35 Q1729.48 1530.77 1727.53 1531.65 L1727.53 1514.29 Z" fill="#000000" fill-rule="nonzero" fill-opacity="1"></path><path clip-path="url(#clip350)" d="M2136.42 1544.91 L2144.06 1544.91 L2144.06 1518.55 L2135.75 1520.21 L2135.75 1515.95 L2144.01 1514.29 L2148.69 1514.29 L2148.69 1544.91 L2156.33 1544.91 L2156.33 1548.85 L2136.42 1548.85 L2136.42 1544.91 Z" fill="#000000" fill-rule="nonzero" fill-opacity="1"></path><path clip-path="url(#clip350)" d="M2165.77 1542.97 L2170.65 1542.97 L2170.65 1548.85 L2165.77 1548.85 L2165.77 1542.97 Z" fill="#000000" fill-rule="nonzero" fill-opacity="1"></path><path clip-path="url(#clip350)" d="M2190.84 1517.37 Q2187.23 1517.37 2185.4 1520.93 Q2183.59 1524.47 2183.59 1531.6 Q2183.59 1538.71 2185.4 1542.27 Q2187.23 1545.82 2190.84 1545.82 Q2194.47 1545.82 2196.28 1542.27 Q2198.11 1538.71 2198.11 1531.6 Q2198.11 1524.47 2196.28 1520.93 Q2194.47 1517.37 2190.84 1517.37 M2190.84 1513.66 Q2196.65 1513.66 2199.7 1518.27 Q2202.78 1522.85 2202.78 1531.6 Q2202.78 1540.33 2199.7 1544.94 Q2196.65 1549.52 2190.84 1549.52 Q2185.03 1549.52 2181.95 1544.94 Q2178.89 1540.33 2178.89 1531.6 Q2178.89 1522.85 2181.95 1518.27 Q2185.03 1513.66 2190.84 1513.66 Z" fill="#000000" fill-rule="nonzero" fill-opacity="1"></path><path clip-path="url(#clip350)" d="M2221 1517.37 Q2217.39 1517.37 2215.56 1520.93 Q2213.76 1524.47 2213.76 1531.6 Q2213.76 1538.71 2215.56 1542.27 Q2217.39 1545.82 2221 1545.82 Q2224.64 1545.82 2226.44 1542.27 Q2228.27 1538.71 2228.27 1531.6 Q2228.27 1524.47 2226.44 1520.93 Q2224.64 1517.37 2221 1517.37 M2221 1513.66 Q2226.81 1513.66 2229.87 1518.27 Q2232.95 1522.85 2232.95 1531.6 Q2232.95 1540.33 2229.87 1544.94 Q2226.81 1549.52 2221 1549.52 Q2215.19 1549.52 2212.11 1544.94 Q2209.06 1540.33 2209.06 1531.6 Q2209.06 1522.85 2212.11 1518.27 Q2215.19 1513.66 2221 1513.66 Z" fill="#000000" fill-rule="nonzero" fill-opacity="1"></path><polyline clip-path="url(#clip350)" style="stroke:#000000; stroke-linecap:round; stroke-linejoin:round; stroke-width:4; stroke-opacity:1; fill:none" points="185.927,1486.45 185.927,47.2441 "></polyline>
<polyline clip-path="url(#clip350)" style="stroke:#000000; stroke-linecap:round; stroke-linejoin:round; stroke-width:4; stroke-opacity:1; fill:none" points="185.927,1445.72 204.824,1445.72 "></polyline>
<polyline clip-path="url(#clip350)" style="stroke:#000000; stroke-linecap:round; stroke-linejoin:round; stroke-width:4; stroke-opacity:1; fill:none" points="185.927,1106.28 204.824,1106.28 "></polyline>
<polyline clip-path="url(#clip350)" style="stroke:#000000; stroke-linecap:round; stroke-linejoin:round; stroke-width:4; stroke-opacity:1; fill:none" points="185.927,766.846 204.824,766.846 "></polyline>
<polyline clip-path="url(#clip350)" style="stroke:#000000; stroke-linecap:round; stroke-linejoin:round; stroke-width:4; stroke-opacity:1; fill:none" points="185.927,427.411 204.824,427.411 "></polyline>
<polyline clip-path="url(#clip350)" style="stroke:#000000; stroke-linecap:round; stroke-linejoin:round; stroke-width:4; stroke-opacity:1; fill:none" points="185.927,87.9763 204.824,87.9763 "></polyline>
<path clip-path="url(#clip350)" d="M53.3995 1459.06 L61.0384 1459.06 L61.0384 1432.69 L52.7282 1434.36 L52.7282 1430.1 L60.9921 1428.44 L65.668 1428.44 L65.668 1459.06 L73.3068 1459.06 L73.3068 1463 L53.3995 1463 L53.3995 1459.06 Z" fill="#000000" fill-rule="nonzero" fill-opacity="1"></path><path clip-path="url(#clip350)" d="M82.7512 1457.12 L87.6354 1457.12 L87.6354 1463 L82.7512 1463 L82.7512 1457.12 Z" fill="#000000" fill-rule="nonzero" fill-opacity="1"></path><path clip-path="url(#clip350)" d="M107.821 1431.51 Q104.209 1431.51 102.381 1435.08 Q100.575 1438.62 100.575 1445.75 Q100.575 1452.86 102.381 1456.42 Q104.209 1459.96 107.821 1459.96 Q111.455 1459.96 113.26 1456.42 Q115.089 1452.86 115.089 1445.75 Q115.089 1438.62 113.26 1435.08 Q111.455 1431.51 107.821 1431.51 M107.821 1427.81 Q113.631 1427.81 116.686 1432.42 Q119.765 1437 119.765 1445.75 Q119.765 1454.48 116.686 1459.08 Q113.631 1463.67 107.821 1463.67 Q102.01 1463.67 98.9317 1459.08 Q95.8761 1454.48 95.8761 1445.75 Q95.8761 1437 98.9317 1432.42 Q102.01 1427.81 107.821 1427.81 Z" fill="#000000" fill-rule="nonzero" fill-opacity="1"></path><path clip-path="url(#clip350)" d="M137.982 1431.51 Q134.371 1431.51 132.543 1435.08 Q130.737 1438.62 130.737 1445.75 Q130.737 1452.86 132.543 1456.42 Q134.371 1459.96 137.982 1459.96 Q141.617 1459.96 143.422 1456.42 Q145.251 1452.86 145.251 1445.75 Q145.251 1438.62 143.422 1435.08 Q141.617 1431.51 137.982 1431.51 M137.982 1427.81 Q143.793 1427.81 146.848 1432.42 Q149.927 1437 149.927 1445.75 Q149.927 1454.48 146.848 1459.08 Q143.793 1463.67 137.982 1463.67 Q132.172 1463.67 129.094 1459.08 Q126.038 1454.48 126.038 1445.75 Q126.038 1437 129.094 1432.42 Q132.172 1427.81 137.982 1427.81 Z" fill="#000000" fill-rule="nonzero" fill-opacity="1"></path><path clip-path="url(#clip350)" d="M54.3949 1119.63 L62.0337 1119.63 L62.0337 1093.26 L53.7236 1094.93 L53.7236 1090.67 L61.9874 1089 L66.6633 1089 L66.6633 1119.63 L74.3022 1119.63 L74.3022 1123.56 L54.3949 1123.56 L54.3949 1119.63 Z" fill="#000000" fill-rule="nonzero" fill-opacity="1"></path><path clip-path="url(#clip350)" d="M83.7466 1117.68 L88.6308 1117.68 L88.6308 1123.56 L83.7466 1123.56 L83.7466 1117.68 Z" fill="#000000" fill-rule="nonzero" fill-opacity="1"></path><path clip-path="url(#clip350)" d="M102.844 1119.63 L119.163 1119.63 L119.163 1123.56 L97.2187 1123.56 L97.2187 1119.63 Q99.8808 1116.87 104.464 1112.24 Q109.071 1107.59 110.251 1106.25 Q112.496 1103.72 113.376 1101.99 Q114.279 1100.23 114.279 1098.54 Q114.279 1095.78 112.334 1094.05 Q110.413 1092.31 107.311 1092.31 Q105.112 1092.31 102.659 1093.07 Q100.228 1093.84 97.4502 1095.39 L97.4502 1090.67 Q100.274 1089.53 102.728 1088.95 Q105.182 1088.38 107.219 1088.38 Q112.589 1088.38 115.783 1091.06 Q118.978 1093.75 118.978 1098.24 Q118.978 1100.37 118.168 1102.29 Q117.381 1104.19 115.274 1106.78 Q114.695 1107.45 111.594 1110.67 Q108.492 1113.86 102.844 1119.63 Z" fill="#000000" fill-rule="nonzero" fill-opacity="1"></path><path clip-path="url(#clip350)" d="M129.024 1089 L147.38 1089 L147.38 1092.94 L133.306 1092.94 L133.306 1101.41 Q134.325 1101.06 135.344 1100.9 Q136.362 1100.71 137.381 1100.71 Q143.168 1100.71 146.547 1103.89 Q149.927 1107.06 149.927 1112.47 Q149.927 1118.05 146.455 1121.15 Q142.982 1124.23 136.663 1124.23 Q134.487 1124.23 132.219 1123.86 Q129.973 1123.49 127.566 1122.75 L127.566 1118.05 Q129.649 1119.19 131.871 1119.74 Q134.094 1120.3 136.57 1120.3 Q140.575 1120.3 142.913 1118.19 Q145.251 1116.08 145.251 1112.47 Q145.251 1108.86 142.913 1106.76 Q140.575 1104.65 136.57 1104.65 Q134.695 1104.65 132.82 1105.07 Q130.969 1105.48 129.024 1106.36 L129.024 1089 Z" fill="#000000" fill-rule="nonzero" fill-opacity="1"></path><path clip-path="url(#clip350)" d="M53.3995 780.191 L61.0384 780.191 L61.0384 753.825 L52.7282 755.492 L52.7282 751.233 L60.9921 749.566 L65.668 749.566 L65.668 780.191 L73.3068 780.191 L73.3068 784.126 L53.3995 784.126 L53.3995 780.191 Z" fill="#000000" fill-rule="nonzero" fill-opacity="1"></path><path clip-path="url(#clip350)" d="M82.7512 778.246 L87.6354 778.246 L87.6354 784.126 L82.7512 784.126 L82.7512 778.246 Z" fill="#000000" fill-rule="nonzero" fill-opacity="1"></path><path clip-path="url(#clip350)" d="M97.8669 749.566 L116.223 749.566 L116.223 753.501 L102.149 753.501 L102.149 761.973 Q103.168 761.626 104.186 761.464 Q105.205 761.279 106.223 761.279 Q112.01 761.279 115.39 764.45 Q118.77 767.621 118.77 773.038 Q118.77 778.617 115.297 781.719 Q111.825 784.797 105.506 784.797 Q103.33 784.797 101.061 784.427 Q98.8159 784.057 96.4085 783.316 L96.4085 778.617 Q98.4919 779.751 100.714 780.307 Q102.936 780.862 105.413 780.862 Q109.418 780.862 111.756 778.756 Q114.094 776.649 114.094 773.038 Q114.094 769.427 111.756 767.321 Q109.418 765.214 105.413 765.214 Q103.538 765.214 101.663 765.631 Q99.8113 766.047 97.8669 766.927 L97.8669 749.566 Z" fill="#000000" fill-rule="nonzero" fill-opacity="1"></path><path clip-path="url(#clip350)" d="M137.982 752.645 Q134.371 752.645 132.543 756.209 Q130.737 759.751 130.737 766.881 Q130.737 773.987 132.543 777.552 Q134.371 781.094 137.982 781.094 Q141.617 781.094 143.422 777.552 Q145.251 773.987 145.251 766.881 Q145.251 759.751 143.422 756.209 Q141.617 752.645 137.982 752.645 M137.982 748.941 Q143.793 748.941 146.848 753.547 Q149.927 758.131 149.927 766.881 Q149.927 775.608 146.848 780.214 Q143.793 784.797 137.982 784.797 Q132.172 784.797 129.094 780.214 Q126.038 775.608 126.038 766.881 Q126.038 758.131 129.094 753.547 Q132.172 748.941 137.982 748.941 Z" fill="#000000" fill-rule="nonzero" fill-opacity="1"></path><path clip-path="url(#clip350)" d="M54.3949 440.756 L62.0337 440.756 L62.0337 414.39 L53.7236 416.057 L53.7236 411.798 L61.9874 410.131 L66.6633 410.131 L66.6633 440.756 L74.3022 440.756 L74.3022 444.691 L54.3949 444.691 L54.3949 440.756 Z" fill="#000000" fill-rule="nonzero" fill-opacity="1"></path><path clip-path="url(#clip350)" d="M83.7466 438.812 L88.6308 438.812 L88.6308 444.691 L83.7466 444.691 L83.7466 438.812 Z" fill="#000000" fill-rule="nonzero" fill-opacity="1"></path><path clip-path="url(#clip350)" d="M97.6354 410.131 L119.857 410.131 L119.857 412.122 L107.311 444.691 L102.427 444.691 L114.233 414.066 L97.6354 414.066 L97.6354 410.131 Z" fill="#000000" fill-rule="nonzero" fill-opacity="1"></path><path clip-path="url(#clip350)" d="M129.024 410.131 L147.38 410.131 L147.38 414.066 L133.306 414.066 L133.306 422.538 Q134.325 422.191 135.344 422.029 Q136.362 421.844 137.381 421.844 Q143.168 421.844 146.547 425.015 Q149.927 428.187 149.927 433.603 Q149.927 439.182 146.455 442.284 Q142.982 445.362 136.663 445.362 Q134.487 445.362 132.219 444.992 Q129.973 444.622 127.566 443.881 L127.566 439.182 Q129.649 440.316 131.871 440.872 Q134.094 441.427 136.57 441.427 Q140.575 441.427 142.913 439.321 Q145.251 437.214 145.251 433.603 Q145.251 429.992 142.913 427.886 Q140.575 425.779 136.57 425.779 Q134.695 425.779 132.82 426.196 Q130.969 426.613 129.024 427.492 L129.024 410.131 Z" fill="#000000" fill-rule="nonzero" fill-opacity="1"></path><path clip-path="url(#clip350)" d="M56.6171 101.321 L72.9365 101.321 L72.9365 105.256 L50.9921 105.256 L50.9921 101.321 Q53.6541 98.5665 58.2375 93.9369 Q62.8439 89.2841 64.0245 87.9416 Q66.2698 85.4184 67.1494 83.6823 Q68.0522 81.9231 68.0522 80.2333 Q68.0522 77.4786 66.1078 75.7425 Q64.1865 74.0064 61.0847 74.0064 Q58.8856 74.0064 56.4319 74.7703 Q54.0014 75.5342 51.2236 77.0851 L51.2236 72.3629 Q54.0477 71.2287 56.5014 70.65 Q58.955 70.0713 60.9921 70.0713 Q66.3624 70.0713 69.5568 72.7565 Q72.7513 75.4416 72.7513 79.9323 Q72.7513 82.062 71.9411 83.9832 Q71.1541 85.8814 69.0476 88.474 Q68.4689 89.1453 65.367 92.3628 Q62.2652 95.5573 56.6171 101.321 Z" fill="#000000" fill-rule="nonzero" fill-opacity="1"></path><path clip-path="url(#clip350)" d="M82.7512 99.3767 L87.6354 99.3767 L87.6354 105.256 L82.7512 105.256 L82.7512 99.3767 Z" fill="#000000" fill-rule="nonzero" fill-opacity="1"></path><path clip-path="url(#clip350)" d="M107.821 73.775 Q104.209 73.775 102.381 77.3398 Q100.575 80.8814 100.575 88.011 Q100.575 95.1174 102.381 98.6822 Q104.209 102.224 107.821 102.224 Q111.455 102.224 113.26 98.6822 Q115.089 95.1174 115.089 88.011 Q115.089 80.8814 113.26 77.3398 Q111.455 73.775 107.821 73.775 M107.821 70.0713 Q113.631 70.0713 116.686 74.6777 Q119.765 79.261 119.765 88.011 Q119.765 96.7378 116.686 101.344 Q113.631 105.928 107.821 105.928 Q102.01 105.928 98.9317 101.344 Q95.8761 96.7378 95.8761 88.011 Q95.8761 79.261 98.9317 74.6777 Q102.01 70.0713 107.821 70.0713 Z" fill="#000000" fill-rule="nonzero" fill-opacity="1"></path><path clip-path="url(#clip350)" d="M137.982 73.775 Q134.371 73.775 132.543 77.3398 Q130.737 80.8814 130.737 88.011 Q130.737 95.1174 132.543 98.6822 Q134.371 102.224 137.982 102.224 Q141.617 102.224 143.422 98.6822 Q145.251 95.1174 145.251 88.011 Q145.251 80.8814 143.422 77.3398 Q141.617 73.775 137.982 73.775 M137.982 70.0713 Q143.793 70.0713 146.848 74.6777 Q149.927 79.261 149.927 88.011 Q149.927 96.7378 146.848 101.344 Q143.793 105.928 137.982 105.928 Q132.172 105.928 129.094 101.344 Q126.038 96.7378 126.038 88.011 Q126.038 79.261 129.094 74.6777 Q132.172 70.0713 137.982 70.0713 Z" fill="#000000" fill-rule="nonzero" fill-opacity="1"></path><polyline clip-path="url(#clip352)" style="stroke:#0000ff; stroke-linecap:round; stroke-linejoin:round; stroke-width:4; stroke-opacity:1; fill:none" points="244.133,1445.72 246.073,1445.72 248.014,1445.72 249.954,1445.72 251.894,1445.72 253.834,1445.72 255.774,1445.72 257.715,1445.72 259.655,1445.72 261.595,1445.72 263.535,1445.72 265.476,1445.72 267.416,1445.72 269.356,1445.72 271.296,1445.72 273.236,1445.72 275.177,1445.72 277.117,1445.72 279.057,1445.72 280.997,1445.72 282.937,1445.72 284.878,1445.72 286.818,1445.72 288.758,1445.72 290.698,1445.72 292.638,1445.72 294.579,1445.72 296.519,1445.72 298.459,1445.72 300.399,1445.72 302.34,1445.72 304.28,1445.72 306.22,1445.72 308.16,1445.72 310.1,1445.72 312.041,1445.72 313.981,1445.72 315.921,1445.72 317.861,1445.72 319.801,1445.72 321.742,1445.72 323.682,1445.72 325.622,1445.72 327.562,1445.72 329.503,1445.72 331.443,1445.72 333.383,1445.72 335.323,1445.72 337.263,1445.72 339.204,1445.72 341.144,1445.72 343.084,1445.72 345.024,1445.72 346.964,1445.72 348.905,1445.72 350.845,1445.72 352.785,1445.72 354.725,1445.72 356.666,1445.72 358.606,1445.72 360.546,1445.72 362.486,1445.72 364.426,1445.72 366.367,1445.72 368.307,1445.72 370.247,1445.72 372.187,1445.72 374.127,1445.72 376.068,1445.72 378.008,1445.72 379.948,1445.72 381.888,1445.72 383.829,1445.72 385.769,1445.72 387.709,1445.72 389.649,1445.72 391.589,1445.72 393.53,1445.72 395.47,1445.72 397.41,1445.72 399.35,1445.72 401.29,1445.72 403.231,1445.72 405.171,1445.72 407.111,1445.72 409.051,1445.72 410.991,1445.72 412.932,1445.72 414.872,1445.72 416.812,1445.72 418.752,1445.72 420.693,1445.72 422.633,1445.72 424.573,1445.72 426.513,1445.72 428.453,1445.72 430.394,1445.72 432.334,1445.72 434.274,1445.72 436.214,1445.72 438.154,1445.72 440.095,1445.72 442.035,1445.72 443.975,1445.72 445.915,1445.72 447.856,1445.72 449.796,1445.72 451.736,1445.72 453.676,1445.72 455.616,1445.72 457.557,1445.72 459.497,1445.72 461.437,1445.72 463.377,1445.72 465.317,1445.72 467.258,1445.72 469.198,1445.72 471.138,1445.72 473.078,1445.72 475.019,1445.72 476.959,1445.72 478.899,1445.72 480.839,1445.72 482.779,1445.72 484.72,1445.72 486.66,1445.72 488.6,1445.72 490.54,1445.72 492.48,1445.72 494.421,1445.72 496.361,1445.72 498.301,1445.72 500.241,1445.72 502.181,1445.72 504.122,1445.72 506.062,1445.72 508.002,1445.72 509.942,1445.72 511.883,1445.72 513.823,1445.72 515.763,1445.72 517.703,1445.72 519.643,1445.72 521.584,1445.72 523.524,1445.72 525.464,1445.72 527.404,1445.72 529.344,1445.72 531.285,1445.72 533.225,1445.72 535.165,1445.72 537.105,1445.72 539.046,1445.72 540.986,1445.72 542.926,1445.72 544.866,1445.72 546.806,1445.72 548.747,1445.72 550.687,1445.72 552.627,1445.72 554.567,1445.72 556.507,1445.72 558.448,1445.72 560.388,1445.72 562.328,1445.72 564.268,1445.72 566.209,1445.72 568.149,1445.72 570.089,1445.72 572.029,1445.72 573.969,1445.72 575.91,1445.72 577.85,1445.72 579.79,1445.72 581.73,1445.72 583.67,1445.72 585.611,1445.72 587.551,1445.72 589.491,1445.72 591.431,1445.72 593.372,1445.72 595.312,1445.72 597.252,1445.72 599.192,1445.72 601.132,1445.72 603.073,1445.72 605.013,1445.72 606.953,1445.72 608.893,1445.72 610.833,1445.72 612.774,1445.72 614.714,1445.72 616.654,1445.72 618.594,1445.72 620.534,1445.72 622.475,1445.72 624.415,1445.72 626.355,1445.72 628.295,1445.72 630.236,1445.72 632.176,1445.72 634.116,1445.72 636.056,1445.72 637.996,1445.72 639.937,1445.72 641.877,1445.72 643.817,1445.72 645.757,1445.72 647.697,1445.72 649.638,1445.72 651.578,1445.72 653.518,1445.72 655.458,1445.72 657.399,1445.72 659.339,1445.72 661.279,1445.72 663.219,1445.72 665.159,1445.72 667.1,1445.72 669.04,1445.72 670.98,1445.72 672.92,1445.72 674.86,1445.72 676.801,1445.72 678.741,1445.72 680.681,1445.72 682.621,1445.72 684.562,1445.72 686.502,1445.72 688.442,1445.72 690.382,1445.72 692.322,1445.72 694.263,1445.72 696.203,1445.72 698.143,1445.72 700.083,1445.72 702.023,1445.72 703.964,1445.72 705.904,1445.72 707.844,1445.72 709.784,1445.72 711.724,1445.72 713.665,1445.72 715.605,1445.72 717.545,1445.72 719.485,1445.72 721.426,1445.72 723.366,1445.72 725.306,1445.72 727.246,1445.72 729.186,1445.72 731.127,1445.72 733.067,1445.72 735.007,1445.72 736.947,1445.72 738.887,1445.72 740.828,1445.72 742.768,1445.72 744.708,1445.72 746.648,1445.72 748.589,1445.72 750.529,1445.72 752.469,1445.72 754.409,1445.72 756.349,1445.72 758.29,1445.72 760.23,1445.72 762.17,1445.72 764.11,1445.72 766.05,1445.72 767.991,1445.72 769.931,1445.72 771.871,1445.72 773.811,1445.72 775.752,1445.72 777.692,1445.72 779.632,1445.72 781.572,1445.72 783.512,1445.72 785.453,1445.72 787.393,1445.72 789.333,1445.72 791.273,1445.72 793.213,1445.72 795.154,1445.72 797.094,1445.72 799.034,1445.72 800.974,1445.72 802.915,1445.72 804.855,1445.72 806.795,1445.72 808.735,1445.72 810.675,1445.72 812.616,1445.72 814.556,1445.72 816.496,1445.72 818.436,1445.72 820.376,1445.72 822.317,1445.72 824.257,1445.72 826.197,1445.72 828.137,1445.72 830.077,1445.72 832.018,1445.72 833.958,1445.72 835.898,1445.72 837.838,1445.72 839.779,1445.72 841.719,1445.72 843.659,1445.72 845.599,1445.72 847.539,1445.72 849.48,1445.72 851.42,1445.72 853.36,1445.72 855.3,1445.72 857.24,1445.72 859.181,1445.72 861.121,1445.72 863.061,1445.72 865.001,1445.72 866.942,1445.72 868.882,1445.72 870.822,1445.72 872.762,1445.72 874.702,1445.72 876.643,1445.72 878.583,1445.72 880.523,1445.72 882.463,1445.72 884.403,1445.72 886.344,1445.72 888.284,1445.72 890.224,1445.72 892.164,1445.72 894.105,1445.72 896.045,1445.72 897.985,1445.72 899.925,1445.72 901.865,1445.72 903.806,1445.72 905.746,1445.72 907.686,1445.72 909.626,1445.72 911.566,1445.72 913.507,1445.72 915.447,1445.72 917.387,1445.72 919.327,1445.72 921.267,1445.72 923.208,1445.72 925.148,1445.72 927.088,1445.72 929.028,1445.72 930.969,1445.72 932.909,1445.72 934.849,1445.72 936.789,1445.72 938.729,1445.72 940.67,1445.72 942.61,1445.72 944.55,1445.72 946.49,1445.72 948.43,1445.72 950.371,1445.72 952.311,1445.72 954.251,1445.72 956.191,1445.72 958.132,1445.72 960.072,1445.72 962.012,1445.72 963.952,1445.72 965.892,1445.72 967.833,1445.72 969.773,1445.72 971.713,1445.72 973.653,1445.72 975.593,1445.72 977.534,1445.72 979.474,1445.72 981.414,1445.72 983.354,1445.72 985.295,1445.72 987.235,1445.72 989.175,1445.72 991.115,1445.72 993.055,1445.72 994.996,1445.72 996.936,1445.72 998.876,1445.72 1000.82,1445.72 1002.76,1445.72 1004.7,1445.72 1006.64,1445.72 1008.58,1445.72 1010.52,1445.72 1012.46,1445.72 1014.4,1445.72 1016.34,1445.72 1018.28,1445.72 1020.22,1445.72 1022.16,1445.72 1024.1,1445.72 1026.04,1445.72 1027.98,1445.72 1029.92,1445.72 1031.86,1445.72 1033.8,1445.72 1035.74,1445.72 1037.68,1445.72 1039.62,1445.72 1041.56,1445.72 1043.5,1445.72 1045.44,1445.72 1047.38,1445.72 1049.32,1445.72 1051.26,1445.72 1053.2,1445.72 1055.14,1445.72 1057.08,1445.72 1059.02,1445.72 1060.96,1445.72 1062.9,1445.72 1064.84,1445.72 1066.78,1445.72 1068.72,1445.72 1070.66,1445.72 1072.6,1445.72 1074.54,1445.72 1076.48,1445.72 1078.42,1445.72 1080.36,1445.72 1082.31,1445.72 1084.25,1445.72 1086.19,1445.72 1088.13,1445.72 1090.07,1445.72 1092.01,1445.72 1093.95,1445.72 1095.89,1445.72 1097.83,1445.72 1099.77,1445.72 1101.71,1445.72 1103.65,1445.72 1105.59,1445.72 1107.53,1445.72 1109.47,1445.72 1111.41,1445.72 1113.35,1445.72 1115.29,1445.72 1117.23,1445.72 1119.17,1445.72 1121.11,1445.72 1123.05,1445.72 1124.99,1445.72 1126.93,1445.72 1128.87,1445.72 1130.81,1445.72 1132.75,1445.72 1134.69,1445.72 1136.63,1445.72 1138.57,1445.72 1140.51,1445.72 1142.45,1445.72 1144.39,1445.72 1146.33,1445.72 1148.27,1445.72 1150.21,1445.72 1152.15,1445.72 1154.09,1445.72 1156.03,1445.72 1157.97,1445.72 1159.91,1445.72 1161.85,1445.72 1163.79,1445.72 1165.73,1445.72 1167.67,1445.72 1169.61,1445.72 1171.55,1445.72 1173.5,1445.72 1175.44,1445.72 1177.38,1445.72 1179.32,1445.72 1181.26,1445.72 1183.2,1445.72 1185.14,1445.72 1187.08,1445.72 1189.02,1445.72 1190.96,1445.72 1192.9,1445.72 1194.84,1445.72 1196.78,1445.72 1198.72,1445.72 1200.66,1445.72 1202.6,1445.72 1204.54,1445.72 1206.48,1445.72 1208.42,1445.72 1210.36,1445.72 1212.3,1445.72 1214.24,1445.72 1216.18,1445.72 1218.12,1445.72 1220.06,1445.72 1222,1445.72 1223.94,1445.72 1225.88,1445.72 1227.82,1445.72 1229.76,1445.72 1231.7,1445.72 1233.64,1445.72 1235.58,1445.72 1237.52,1445.72 1239.46,1445.72 1241.4,1445.72 1243.34,1445.72 1245.28,1445.72 1247.22,1445.72 1249.16,1445.72 1251.1,1445.72 1253.04,1445.72 1254.98,1445.72 1256.92,1445.72 1258.86,1445.72 1260.8,1445.72 1262.74,1445.72 1264.69,1445.72 1266.63,1445.72 1268.57,1445.72 1270.51,1445.72 1272.45,1445.72 1274.39,1445.72 1276.33,1445.72 1278.27,1445.72 1280.21,1445.72 1282.15,1445.72 1284.09,1445.72 1286.03,1445.72 1287.97,1445.72 1289.91,1445.72 1291.85,1445.72 1293.79,1445.72 1295.73,1445.72 1297.67,1445.72 1299.61,1445.72 1301.55,1445.72 1303.49,1445.72 1305.43,1445.72 1307.37,1445.72 1309.31,1445.72 1311.25,1445.72 1313.19,1445.72 1315.13,1445.72 1317.07,1445.72 1319.01,1445.72 1320.95,1445.72 1322.89,1445.72 1324.83,1445.72 1326.77,1445.72 1328.71,1445.72 1330.65,1445.72 1332.59,1445.72 1334.53,1445.72 1336.47,1445.72 1338.41,1445.72 1340.35,1445.72 1342.29,1445.72 1344.23,1445.72 1346.17,1445.72 1348.11,1445.72 1350.05,1445.72 1351.99,1445.72 1353.93,1445.72 1355.88,1445.72 1357.82,1445.72 1359.76,1445.72 1361.7,1445.72 1363.64,1445.72 1365.58,1445.72 1367.52,1445.72 1369.46,1445.72 1371.4,1445.72 1373.34,1445.72 1375.28,1445.72 1377.22,1445.72 1379.16,1445.72 1381.1,1445.72 1383.04,1445.72 1384.98,1445.72 1386.92,1445.72 1388.86,1445.72 1390.8,1445.72 1392.74,1445.72 1394.68,1445.72 1396.62,1445.72 1398.56,1445.72 1400.5,1445.72 1402.44,1445.72 1404.38,1445.72 1406.32,1445.72 1408.26,1445.72 1410.2,1445.72 1412.14,1445.72 1414.08,1445.72 1416.02,1445.72 1417.96,1445.72 1419.9,1445.72 1421.84,1445.72 1423.78,1445.72 1425.72,1445.72 1427.66,1445.72 1429.6,1445.72 1431.54,1445.72 1433.48,1445.72 1435.42,1445.72 1437.36,1445.72 1439.3,1445.72 1441.24,1445.72 1443.18,1445.72 1445.12,1445.72 1447.07,1445.72 1449.01,1445.72 1450.95,1445.72 1452.89,1445.72 1454.83,1445.72 1456.77,1445.72 1458.71,1445.72 1460.65,1445.72 1462.59,1445.72 1464.53,1445.72 1466.47,1445.72 1468.41,1445.72 1470.35,1445.72 1472.29,1445.72 1474.23,1445.72 1476.17,1445.72 1478.11,1445.72 1480.05,1445.72 1481.99,1445.72 1483.93,1445.72 1485.87,1445.72 1487.81,1445.72 1489.75,1445.72 1491.69,1445.72 1493.63,1445.72 1495.57,1445.72 1497.51,1445.72 1499.45,1445.72 1501.39,1445.72 1503.33,1445.72 1505.27,1445.72 1507.21,1445.72 1509.15,1445.72 1511.09,1445.72 1513.03,1445.72 1514.97,1445.72 1516.91,1445.72 1518.85,1445.72 1520.79,1445.72 1522.73,1445.72 1524.67,1445.72 1526.61,1445.72 1528.55,1445.72 1530.49,1445.72 1532.43,1445.72 1534.37,1445.72 1536.32,1445.72 1538.26,1445.72 1540.2,1445.72 1542.14,1445.72 1544.08,1445.72 1546.02,1445.72 1547.96,1445.72 1549.9,1445.72 1551.84,1445.72 1553.78,1445.72 1555.72,1445.72 1557.66,1445.72 1559.6,1445.72 1561.54,1445.72 1563.48,1445.72 1565.42,1445.72 1567.36,1445.72 1569.3,1445.72 1571.24,1445.72 1573.18,1445.72 1575.12,1445.72 1577.06,1445.72 1579,1445.72 1580.94,1445.72 1582.88,1445.72 1584.82,1445.72 1586.76,1445.72 1588.7,1445.72 1590.64,1445.72 1592.58,1445.72 1594.52,1445.72 1596.46,1445.72 1598.4,1445.72 1600.34,1445.72 1602.28,1445.72 1604.22,1445.72 1606.16,1445.72 1608.1,1445.72 1610.04,1445.72 1611.98,1445.72 1613.92,1445.72 1615.86,1445.72 1617.8,1445.72 1619.74,1445.72 1621.68,1445.72 1623.62,1445.72 1625.56,1445.72 1627.51,1445.72 1629.45,1445.72 1631.39,1445.72 1633.33,1445.72 1635.27,1445.72 1637.21,1445.72 1639.15,1445.72 1641.09,1445.72 1643.03,1445.72 1644.97,1445.72 1646.91,1445.72 1648.85,1445.72 1650.79,1445.72 1652.73,1445.72 1654.67,1445.72 1656.61,1445.72 1658.55,1445.72 1660.49,1445.72 1662.43,1445.72 1664.37,1445.72 1666.31,1445.72 1668.25,1445.72 1670.19,1445.72 1672.13,1445.72 1674.07,1445.72 1676.01,1445.72 1677.95,1445.72 1679.89,1445.72 1681.83,1445.72 1683.77,1445.72 1685.71,1445.72 1687.65,1445.72 1689.59,1445.72 1691.53,1445.72 1693.47,1445.72 1695.41,1445.72 1697.35,1445.72 1699.29,1445.72 1701.23,1445.72 1703.17,1445.72 1705.11,1445.72 1707.05,1445.72 1708.99,1445.72 1710.93,1445.72 1712.87,1445.72 1714.81,1445.72 1716.75,1445.72 1718.7,1445.72 1720.64,1445.72 1722.58,1445.72 1724.52,1445.72 1726.46,1445.72 1728.4,1445.72 1730.34,1445.72 1732.28,1445.72 1734.22,1445.72 1736.16,1445.72 1738.1,1445.72 1740.04,1445.72 1741.98,1445.72 1743.92,1445.72 1745.86,1445.72 1747.8,1445.72 1749.74,1445.72 1751.68,1445.72 1753.62,1445.72 1755.56,1445.72 1757.5,1445.72 1759.44,1445.72 1761.38,1445.72 1763.32,1445.72 1765.26,1445.72 1767.2,1445.72 1769.14,1445.72 1771.08,1445.72 1773.02,1445.72 1774.96,1445.72 1776.9,1445.72 1778.84,1445.72 1780.78,1445.72 1782.72,1445.72 1784.66,1445.72 1786.6,1445.72 1788.54,1445.72 1790.48,1445.72 1792.42,1445.72 1794.36,1445.72 1796.3,1445.72 1798.24,1445.72 1800.18,1445.72 1802.12,1445.72 1804.06,1445.72 1806,1445.72 1807.94,1445.72 1809.89,1445.72 1811.83,1445.72 1813.77,1445.72 1815.71,1445.72 1817.65,1445.72 1819.59,1445.72 1821.53,1445.72 1823.47,1445.72 1825.41,1445.72 1827.35,1445.72 1829.29,1445.72 1831.23,1445.72 1833.17,1445.72 1835.11,1445.72 1837.05,1445.72 1838.99,1445.72 1840.93,1445.72 1842.87,1445.72 1844.81,1445.72 1846.75,1445.72 1848.69,1445.72 1850.63,1445.72 1852.57,1445.72 1854.51,1445.72 1856.45,1445.72 1858.39,1445.72 1860.33,1445.72 1862.27,1445.72 1864.21,1445.72 1866.15,1445.72 1868.09,1445.72 1870.03,1445.72 1871.97,1445.72 1873.91,1445.72 1875.85,1445.72 1877.79,1445.72 1879.73,1445.72 1881.67,1445.72 1883.61,1445.72 1885.55,1445.72 1887.49,1445.72 1889.43,1445.72 1891.37,1445.72 1893.31,1445.72 1895.25,1445.72 1897.19,1445.72 1899.13,1445.72 1901.08,1445.72 1903.02,1445.72 1904.96,1445.72 1906.9,1445.72 1908.84,1445.72 1910.78,1445.72 1912.72,1445.72 1914.66,1445.72 1916.6,1445.72 1918.54,1445.72 1920.48,1445.72 1922.42,1445.72 1924.36,1445.72 1926.3,1445.72 1928.24,1445.72 1930.18,1445.72 1932.12,1445.72 1934.06,1445.72 1936,1445.72 1937.94,1445.72 1939.88,1445.72 1941.82,1445.72 1943.76,1445.72 1945.7,1445.72 1947.64,1445.72 1949.58,1445.72 1951.52,1445.72 1953.46,1445.72 1955.4,1445.72 1957.34,1445.72 1959.28,1445.72 1961.22,1445.72 1963.16,1445.72 1965.1,1445.72 1967.04,1445.72 1968.98,1445.72 1970.92,1445.72 1972.86,1445.72 1974.8,1445.72 1976.74,1445.72 1978.68,1445.72 1980.62,1445.72 1982.56,1445.72 1984.5,1445.72 1986.44,1445.72 1988.38,1445.72 1990.32,1445.72 1992.27,1445.72 1994.21,1445.72 1996.15,1445.72 1998.09,1445.72 2000.03,1445.72 2001.97,1445.72 2003.91,1445.72 2005.85,1445.72 2007.79,1445.72 2009.73,1445.72 2011.67,1445.72 2013.61,1445.72 2015.55,1445.72 2017.49,1445.72 2019.43,1445.72 2021.37,1445.72 2023.31,1445.72 2025.25,1445.72 2027.19,1445.72 2029.13,1445.72 2031.07,1445.72 2033.01,1445.72 2034.95,1445.72 2036.89,1445.72 2038.83,1445.72 2040.77,1445.72 2042.71,1445.72 2044.65,1445.72 2046.59,1445.72 2048.53,1445.72 2050.47,1445.72 2052.41,1445.72 2054.35,1445.72 2056.29,1445.72 2058.23,1445.72 2060.17,1445.72 2062.11,1445.72 2064.05,1445.72 2065.99,1445.72 2067.93,1445.72 2069.87,1445.72 2071.81,1445.72 2073.75,1445.72 2075.69,1445.72 2077.63,1445.72 2079.57,1445.72 2081.51,1445.72 2083.46,1445.72 2085.4,1445.72 2087.34,1445.72 2089.28,1445.72 2091.22,1445.72 2093.16,1445.72 2095.1,1445.72 2097.04,1445.72 2098.98,1445.72 2100.92,1445.72 2102.86,1445.72 2104.8,1445.72 2106.74,1445.72 2108.68,1445.72 2110.62,1445.72 2112.56,1445.72 2114.5,1445.72 2116.44,1445.72 2118.38,1445.72 2120.32,1445.72 2122.26,1445.72 2124.2,1445.72 2126.14,1445.72 2128.08,1445.72 2130.02,1445.72 2131.96,1445.72 2133.9,1445.72 2135.84,1445.72 2137.78,1445.72 2139.72,1445.72 2141.66,1445.72 2143.6,1445.72 2145.54,1445.72 2147.48,1445.72 2149.42,1445.72 2151.36,1445.72 2153.3,1445.72 2155.24,1445.72 2157.18,1445.72 2159.12,1445.72 2161.06,1445.72 2163,1445.72 2164.94,1445.72 2166.88,1445.72 2168.82,1445.72 2170.76,1445.72 2172.7,1445.72 2174.65,1445.72 2176.59,1445.72 2178.53,1445.72 2180.47,1445.72 2182.41,1445.72 2184.35,1445.72 "></polyline>
<path clip-path="url(#clip350)" d="M254.481 198.898 L649.494 198.898 L649.494 95.2176 L254.481 95.2176  Z" fill="#ffffff" fill-rule="evenodd" fill-opacity="1"></path>
<polyline clip-path="url(#clip350)" style="stroke:#000000; stroke-linecap:round; stroke-linejoin:round; stroke-width:4; stroke-opacity:1; fill:none" points="254.481,198.898 649.494,198.898 649.494,95.2176 254.481,95.2176 254.481,198.898 "></polyline>
<polyline clip-path="url(#clip350)" style="stroke:#0000ff; stroke-linecap:round; stroke-linejoin:round; stroke-width:4; stroke-opacity:1; fill:none" points="277.332,147.058 414.441,147.058 "></polyline>
<path clip-path="url(#clip350)" d="M441.575 160.449 L441.575 174.199 L437.292 174.199 L437.292 138.412 L441.575 138.412 L441.575 142.347 Q442.917 140.032 444.954 138.921 Q447.014 137.787 449.862 137.787 Q454.584 137.787 457.524 141.537 Q460.486 145.287 460.486 151.398 Q460.486 157.509 457.524 161.259 Q454.584 165.009 449.862 165.009 Q447.014 165.009 444.954 163.898 Q442.917 162.763 441.575 160.449 M456.065 151.398 Q456.065 146.699 454.121 144.037 Q452.199 141.352 448.82 141.352 Q445.44 141.352 443.496 144.037 Q441.575 146.699 441.575 151.398 Q441.575 156.097 443.496 158.782 Q445.44 161.444 448.82 161.444 Q452.199 161.444 454.121 158.782 Q456.065 156.097 456.065 151.398 Z" fill="#000000" fill-rule="nonzero" fill-opacity="1"></path><path clip-path="url(#clip350)" d="M477.593 141.398 Q474.167 141.398 472.176 144.083 Q470.185 146.745 470.185 151.398 Q470.185 156.051 472.153 158.736 Q474.144 161.398 477.593 161.398 Q480.996 161.398 482.986 158.713 Q484.977 156.027 484.977 151.398 Q484.977 146.791 482.986 144.106 Q480.996 141.398 477.593 141.398 M477.593 137.787 Q483.148 137.787 486.32 141.398 Q489.491 145.009 489.491 151.398 Q489.491 157.764 486.32 161.398 Q483.148 165.009 477.593 165.009 Q472.014 165.009 468.843 161.398 Q465.695 157.764 465.695 151.398 Q465.695 145.009 468.843 141.398 Q472.014 137.787 477.593 137.787 Z" fill="#000000" fill-rule="nonzero" fill-opacity="1"></path><path clip-path="url(#clip350)" d="M500.671 160.449 L500.671 174.199 L496.389 174.199 L496.389 138.412 L500.671 138.412 L500.671 142.347 Q502.014 140.032 504.051 138.921 Q506.111 137.787 508.958 137.787 Q513.681 137.787 516.62 141.537 Q519.583 145.287 519.583 151.398 Q519.583 157.509 516.62 161.259 Q513.681 165.009 508.958 165.009 Q506.111 165.009 504.051 163.898 Q502.014 162.763 500.671 160.449 M515.162 151.398 Q515.162 146.699 513.218 144.037 Q511.296 141.352 507.917 141.352 Q504.537 141.352 502.593 144.037 Q500.671 146.699 500.671 151.398 Q500.671 156.097 502.593 158.782 Q504.537 161.444 507.917 161.444 Q511.296 161.444 513.218 158.782 Q515.162 156.097 515.162 151.398 Z" fill="#000000" fill-rule="nonzero" fill-opacity="1"></path><path clip-path="url(#clip350)" d="M558.241 139.176 L558.241 143.203 Q556.435 142.277 554.491 141.815 Q552.546 141.352 550.463 141.352 Q547.292 141.352 545.694 142.324 Q544.12 143.296 544.12 145.24 Q544.12 146.722 545.255 147.578 Q546.389 148.412 549.815 149.176 L551.273 149.5 Q555.81 150.472 557.708 152.254 Q559.629 154.014 559.629 157.185 Q559.629 160.796 556.759 162.902 Q553.912 165.009 548.912 165.009 Q546.829 165.009 544.56 164.592 Q542.315 164.199 539.815 163.388 L539.815 158.99 Q542.176 160.217 544.468 160.842 Q546.759 161.444 549.005 161.444 Q552.014 161.444 553.634 160.426 Q555.254 159.384 555.254 157.509 Q555.254 155.773 554.074 154.847 Q552.917 153.921 548.958 153.064 L547.477 152.717 Q543.518 151.884 541.759 150.171 Q540 148.435 540 145.426 Q540 141.768 542.593 139.778 Q545.185 137.787 549.954 137.787 Q552.315 137.787 554.398 138.134 Q556.481 138.481 558.241 139.176 Z" fill="#000000" fill-rule="nonzero" fill-opacity="1"></path><path clip-path="url(#clip350)" d="M566.412 138.412 L570.671 138.412 L570.671 164.338 L566.412 164.338 L566.412 138.412 M566.412 128.319 L570.671 128.319 L570.671 133.713 L566.412 133.713 L566.412 128.319 Z" fill="#000000" fill-rule="nonzero" fill-opacity="1"></path><path clip-path="url(#clip350)" d="M577.731 138.412 L597.963 138.412 L597.963 142.301 L581.944 160.935 L597.963 160.935 L597.963 164.338 L577.153 164.338 L577.153 160.449 L593.171 141.815 L577.731 141.815 L577.731 138.412 Z" fill="#000000" fill-rule="nonzero" fill-opacity="1"></path><path clip-path="url(#clip350)" d="M626.643 150.31 L626.643 152.393 L607.06 152.393 Q607.338 156.791 609.699 159.106 Q612.083 161.398 616.319 161.398 Q618.773 161.398 621.064 160.796 Q623.379 160.194 625.648 158.99 L625.648 163.018 Q623.356 163.99 620.949 164.5 Q618.541 165.009 616.064 165.009 Q609.861 165.009 606.226 161.398 Q602.615 157.787 602.615 151.629 Q602.615 145.264 606.041 141.537 Q609.49 137.787 615.324 137.787 Q620.555 137.787 623.587 141.166 Q626.643 144.523 626.643 150.31 M622.384 149.06 Q622.337 145.565 620.416 143.481 Q618.518 141.398 615.37 141.398 Q611.805 141.398 609.652 143.412 Q607.523 145.426 607.199 149.083 L622.384 149.06 Z" fill="#000000" fill-rule="nonzero" fill-opacity="1"></path><polyline clip-path="url(#clip350)" style="stroke:#000000; stroke-linecap:round; stroke-linejoin:round; stroke-width:4; stroke-opacity:1; fill:none" points="2242.55,1486.45 2242.55,47.2441 "></polyline>
<polyline clip-path="url(#clip350)" style="stroke:#000000; stroke-linecap:round; stroke-linejoin:round; stroke-width:4; stroke-opacity:1; fill:none" points="2242.55,832.388 2223.65,832.388 "></polyline>
<polyline clip-path="url(#clip350)" style="stroke:#000000; stroke-linecap:round; stroke-linejoin:round; stroke-width:4; stroke-opacity:1; fill:none" points="2242.55,87.9763 2223.65,87.9763 "></polyline>
<path clip-path="url(#clip350)" d="M2279.22 852.181 L2286.86 852.181 L2286.86 825.815 L2278.55 827.482 L2278.55 823.222 L2286.82 821.556 L2291.49 821.556 L2291.49 852.181 L2299.13 852.181 L2299.13 856.116 L2279.22 856.116 L2279.22 852.181 Z" fill="#000000" fill-rule="nonzero" fill-opacity="1"></path><path clip-path="url(#clip350)" d="M2318.58 824.634 Q2314.96 824.634 2313.14 828.199 Q2311.33 831.741 2311.33 838.871 Q2311.33 845.977 2313.14 849.542 Q2314.96 853.083 2318.58 853.083 Q2322.21 853.083 2324.02 849.542 Q2325.84 845.977 2325.84 838.871 Q2325.84 831.741 2324.02 828.199 Q2322.21 824.634 2318.58 824.634 M2318.58 820.931 Q2324.39 820.931 2327.44 825.537 Q2330.52 830.121 2330.52 838.871 Q2330.52 847.597 2327.44 852.204 Q2324.39 856.787 2318.58 856.787 Q2312.77 856.787 2309.69 852.204 Q2306.63 847.597 2306.63 838.871 Q2306.63 830.121 2309.69 825.537 Q2312.77 820.931 2318.58 820.931 Z" fill="#000000" fill-rule="nonzero" fill-opacity="1"></path><path clip-path="url(#clip350)" d="M2335.09 825.508 L2348.35 825.508 L2348.35 828.705 L2330.52 828.705 L2330.52 825.508 Q2332.68 823.27 2336.41 819.508 Q2340.15 815.728 2341.11 814.637 Q2342.93 812.587 2343.65 811.177 Q2344.38 809.747 2344.38 808.374 Q2344.38 806.136 2342.8 804.725 Q2341.24 803.315 2338.72 803.315 Q2336.93 803.315 2334.94 803.936 Q2332.96 804.556 2330.71 805.816 L2330.71 801.98 Q2333 801.058 2335 800.588 Q2336.99 800.118 2338.64 800.118 Q2343.01 800.118 2345.6 802.299 Q2348.2 804.481 2348.2 808.13 Q2348.2 809.86 2347.54 811.421 Q2346.9 812.963 2345.19 815.07 Q2344.72 815.615 2342.2 818.229 Q2339.68 820.825 2335.09 825.508 Z" fill="#000000" fill-rule="nonzero" fill-opacity="1"></path><path clip-path="url(#clip350)" d="M2279.22 107.769 L2286.86 107.769 L2286.86 81.4031 L2278.55 83.0698 L2278.55 78.8105 L2286.82 77.1439 L2291.49 77.1439 L2291.49 107.769 L2299.13 107.769 L2299.13 111.704 L2279.22 111.704 L2279.22 107.769 Z" fill="#000000" fill-rule="nonzero" fill-opacity="1"></path><path clip-path="url(#clip350)" d="M2318.58 80.2226 Q2314.96 80.2226 2313.14 83.7874 Q2311.33 87.329 2311.33 94.4586 Q2311.33 101.565 2313.14 105.13 Q2314.96 108.671 2318.58 108.671 Q2322.21 108.671 2324.02 105.13 Q2325.84 101.565 2325.84 94.4586 Q2325.84 87.329 2324.02 83.7874 Q2322.21 80.2226 2318.58 80.2226 M2318.58 76.5189 Q2324.39 76.5189 2327.44 81.1253 Q2330.52 85.7086 2330.52 94.4586 Q2330.52 103.185 2327.44 107.792 Q2324.39 112.375 2318.58 112.375 Q2312.77 112.375 2309.69 107.792 Q2306.63 103.185 2306.63 94.4586 Q2306.63 85.7086 2309.69 81.1253 Q2312.77 76.5189 2318.58 76.5189 Z" fill="#000000" fill-rule="nonzero" fill-opacity="1"></path><path clip-path="url(#clip350)" d="M2343.22 69.1532 Q2345.94 69.7363 2347.47 71.5794 Q2349.01 73.4226 2349.01 76.1309 Q2349.01 80.2874 2346.15 82.5632 Q2343.29 84.8389 2338.02 84.8389 Q2336.26 84.8389 2334.38 84.4816 Q2332.51 84.143 2330.52 83.4471 L2330.52 79.7796 Q2332.1 80.7012 2333.98 81.1714 Q2335.86 81.6416 2337.91 81.6416 Q2341.48 81.6416 2343.35 80.231 Q2345.23 78.8204 2345.23 76.1309 Q2345.23 73.6483 2343.48 72.2565 Q2341.75 70.8459 2338.64 70.8459 L2335.37 70.8459 L2335.37 67.7238 L2338.8 67.7238 Q2341.6 67.7238 2343.08 66.6142 Q2344.57 65.4857 2344.57 63.3792 Q2344.57 61.2163 2343.03 60.0691 Q2341.5 58.903 2338.64 58.903 Q2337.08 58.903 2335.3 59.2415 Q2333.51 59.5801 2331.37 60.2948 L2331.37 56.9094 Q2333.53 56.3075 2335.41 56.0066 Q2337.31 55.7057 2338.98 55.7057 Q2343.31 55.7057 2345.83 57.6805 Q2348.35 59.6365 2348.35 62.9843 Q2348.35 65.3164 2347.01 66.9339 Q2345.68 68.5326 2343.22 69.1532 Z" fill="#000000" fill-rule="nonzero" fill-opacity="1"></path><polyline clip-path="url(#clip352)" style="stroke:#ff0000; stroke-linecap:round; stroke-linejoin:round; stroke-width:4; stroke-opacity:1; fill:none" points="2184.35,87.9763 1992.84,87.9763 1992.84,130.777 1759.53,130.777 1759.53,217.931 1595.12,217.931 1595.12,333.449 1392.62,333.449 1392.62,1255.69 1125.39,1255.69 1125.39,1352.71 545.915,1352.71 545.915,1445.72 244.133,1445.72 "></polyline>
<path clip-path="url(#clip350)" d="M1015.52 198.898 L1412.96 198.898 L1412.96 95.2176 L1015.52 95.2176  Z" fill="#ffffff" fill-rule="evenodd" fill-opacity="1"></path>
<polyline clip-path="url(#clip350)" style="stroke:#000000; stroke-linecap:round; stroke-linejoin:round; stroke-width:4; stroke-opacity:1; fill:none" points="1015.52,198.898 1412.96,198.898 1412.96,95.2176 1015.52,95.2176 1015.52,198.898 "></polyline>
<polyline clip-path="url(#clip350)" style="stroke:#ff0000; stroke-linecap:round; stroke-linejoin:round; stroke-width:4; stroke-opacity:1; fill:none" points="1038.37,147.058 1175.48,147.058 "></polyline>
<path clip-path="url(#clip350)" d="M1198.33 128.319 L1202.59 128.319 L1202.59 164.338 L1198.33 164.338 L1198.33 128.319 Z" fill="#000000" fill-rule="nonzero" fill-opacity="1"></path><path clip-path="url(#clip350)" d="M1211.5 138.412 L1215.76 138.412 L1215.76 164.338 L1211.5 164.338 L1211.5 138.412 M1211.5 128.319 L1215.76 128.319 L1215.76 133.713 L1211.5 133.713 L1211.5 128.319 Z" fill="#000000" fill-rule="nonzero" fill-opacity="1"></path><path clip-path="url(#clip350)" d="M1246.22 148.689 L1246.22 164.338 L1241.96 164.338 L1241.96 148.828 Q1241.96 145.148 1240.53 143.319 Q1239.09 141.49 1236.22 141.49 Q1232.77 141.49 1230.78 143.69 Q1228.79 145.889 1228.79 149.685 L1228.79 164.338 L1224.51 164.338 L1224.51 138.412 L1228.79 138.412 L1228.79 142.44 Q1230.32 140.102 1232.38 138.944 Q1234.46 137.787 1237.17 137.787 Q1241.64 137.787 1243.93 140.565 Q1246.22 143.319 1246.22 148.689 Z" fill="#000000" fill-rule="nonzero" fill-opacity="1"></path><path clip-path="url(#clip350)" d="M1276.89 150.31 L1276.89 152.393 L1257.31 152.393 Q1257.59 156.791 1259.95 159.106 Q1262.33 161.398 1266.57 161.398 Q1269.02 161.398 1271.31 160.796 Q1273.63 160.194 1275.9 158.99 L1275.9 163.018 Q1273.61 163.99 1271.2 164.5 Q1268.79 165.009 1266.31 165.009 Q1260.11 165.009 1256.48 161.398 Q1252.87 157.787 1252.87 151.629 Q1252.87 145.264 1256.29 141.537 Q1259.74 137.787 1265.57 137.787 Q1270.81 137.787 1273.84 141.166 Q1276.89 144.523 1276.89 150.31 M1272.63 149.06 Q1272.59 145.565 1270.67 143.481 Q1268.77 141.398 1265.62 141.398 Q1262.06 141.398 1259.9 143.412 Q1257.77 145.426 1257.45 149.083 L1272.63 149.06 Z" fill="#000000" fill-rule="nonzero" fill-opacity="1"></path><path clip-path="url(#clip350)" d="M1295.67 151.305 Q1290.5 151.305 1288.51 152.486 Q1286.52 153.666 1286.52 156.514 Q1286.52 158.782 1288 160.125 Q1289.51 161.444 1292.08 161.444 Q1295.62 161.444 1297.75 158.944 Q1299.9 156.421 1299.9 152.254 L1299.9 151.305 L1295.67 151.305 M1304.16 149.546 L1304.16 164.338 L1299.9 164.338 L1299.9 160.402 Q1298.44 162.763 1296.27 163.898 Q1294.09 165.009 1290.94 165.009 Q1286.96 165.009 1284.6 162.787 Q1282.26 160.541 1282.26 156.791 Q1282.26 152.416 1285.18 150.194 Q1288.12 147.972 1293.93 147.972 L1299.9 147.972 L1299.9 147.555 Q1299.9 144.615 1297.96 143.018 Q1296.04 141.398 1292.54 141.398 Q1290.32 141.398 1288.21 141.93 Q1286.11 142.463 1284.16 143.527 L1284.16 139.592 Q1286.5 138.69 1288.7 138.25 Q1290.9 137.787 1292.98 137.787 Q1298.61 137.787 1301.38 140.703 Q1304.16 143.62 1304.16 149.546 Z" fill="#000000" fill-rule="nonzero" fill-opacity="1"></path><path clip-path="url(#clip350)" d="M1329.99 151.074 Q1329.99 146.444 1328.07 143.898 Q1326.18 141.352 1322.73 141.352 Q1319.3 141.352 1317.38 143.898 Q1315.48 146.444 1315.48 151.074 Q1315.48 155.68 1317.38 158.226 Q1319.3 160.773 1322.73 160.773 Q1326.18 160.773 1328.07 158.226 Q1329.99 155.68 1329.99 151.074 M1334.25 161.12 Q1334.25 167.74 1331.31 170.958 Q1328.37 174.199 1322.31 174.199 Q1320.06 174.199 1318.07 173.851 Q1316.08 173.527 1314.21 172.833 L1314.21 168.689 Q1316.08 169.708 1317.91 170.194 Q1319.74 170.68 1321.64 170.68 Q1325.83 170.68 1327.91 168.481 Q1329.99 166.305 1329.99 161.884 L1329.99 159.777 Q1328.68 162.069 1326.62 163.203 Q1324.56 164.338 1321.68 164.338 Q1316.92 164.338 1314 160.703 Q1311.08 157.069 1311.08 151.074 Q1311.08 145.055 1314 141.421 Q1316.92 137.787 1321.68 137.787 Q1324.56 137.787 1326.62 138.921 Q1328.68 140.055 1329.99 142.347 L1329.99 138.412 L1334.25 138.412 L1334.25 161.12 Z" fill="#000000" fill-rule="nonzero" fill-opacity="1"></path><path clip-path="url(#clip350)" d="M1365.2 150.31 L1365.2 152.393 L1345.62 152.393 Q1345.9 156.791 1348.26 159.106 Q1350.64 161.398 1354.88 161.398 Q1357.33 161.398 1359.62 160.796 Q1361.94 160.194 1364.21 158.99 L1364.21 163.018 Q1361.92 163.99 1359.51 164.5 Q1357.1 165.009 1354.62 165.009 Q1348.42 165.009 1344.79 161.398 Q1341.18 157.787 1341.18 151.629 Q1341.18 145.264 1344.6 141.537 Q1348.05 137.787 1353.88 137.787 Q1359.12 137.787 1362.15 141.166 Q1365.2 144.523 1365.2 150.31 M1360.94 149.06 Q1360.9 145.565 1358.98 143.481 Q1357.08 141.398 1353.93 141.398 Q1350.37 141.398 1348.21 143.412 Q1346.08 145.426 1345.76 149.083 L1360.94 149.06 Z" fill="#000000" fill-rule="nonzero" fill-opacity="1"></path><path clip-path="url(#clip350)" d="M1388.72 139.176 L1388.72 143.203 Q1386.92 142.277 1384.97 141.815 Q1383.03 141.352 1380.94 141.352 Q1377.77 141.352 1376.18 142.324 Q1374.6 143.296 1374.6 145.24 Q1374.6 146.722 1375.74 147.578 Q1376.87 148.412 1380.3 149.176 L1381.75 149.5 Q1386.29 150.472 1388.19 152.254 Q1390.11 154.014 1390.11 157.185 Q1390.11 160.796 1387.24 162.902 Q1384.39 165.009 1379.39 165.009 Q1377.31 165.009 1375.04 164.592 Q1372.8 164.199 1370.3 163.388 L1370.3 158.99 Q1372.66 160.217 1374.95 160.842 Q1377.24 161.444 1379.49 161.444 Q1382.49 161.444 1384.11 160.426 Q1385.74 159.384 1385.74 157.509 Q1385.74 155.773 1384.55 154.847 Q1383.4 153.921 1379.44 153.064 L1377.96 152.717 Q1374 151.884 1372.24 150.171 Q1370.48 148.435 1370.48 145.426 Q1370.48 141.768 1373.07 139.778 Q1375.67 137.787 1380.43 137.787 Q1382.8 137.787 1384.88 138.134 Q1386.96 138.481 1388.72 139.176 Z" fill="#000000" fill-rule="nonzero" fill-opacity="1"></path></svg>